<svg t="1702176619337" class="icon" viewBox="0 0 1024 1024" version="1.1" xmlns="http://www.w3.org/2000/svg" p-id="31314" width="128" height="128"><path d="M704.019482 244.466096H384.037681c-15.99909 0-15.99909 4.479745-15.99909 12.159308v5.119709H640.023122a52.477015 52.477015 0 0 1 58.876651 54.396906v391.657725l12.159309 11.519345c8.319527 0 8.319527-5.759672 8.319527-11.519345V255.985441c-2.559854-7.0396-2.559854-11.519345-15.359127-11.519345z" fill="#ffffff" p-id="31315"></path><path d="M640.023122 304.622675H323.241139c-15.99909 0-15.99909 4.479745-15.99909 11.519344V767.956322c0 6.399636 0 10.239418 8.319527 11.519345l31.99818-27.518435 123.512975-108.153848a21.758762 21.758762 0 0 1 28.798362 0l14.719163 14.079199 127.99272 121.593084c8.319527 0 8.319527-5.759672 8.319527-11.519345V319.981801c2.559854-10.879381 2.559854-15.359126-10.879381-15.359126z" fill="#ffffff" p-id="31316"></path><path d="M872.32991 151.03141A511.970882 511.970882 0 0 0 691.860174 33.278107a533.089681 533.089681 0 0 0-360.299508 0 511.970882 511.970882 0 0 0-180.469736 117.753303A494.051901 494.051901 0 0 0 0.05952 511.970882a491.492046 491.492046 0 0 0 149.111519 360.299508A492.13201 492.13201 0 0 0 512.030402 1023.941763a490.212119 490.212119 0 0 0 360.299508-149.751483A488.932192 488.932192 0 0 0 1024.001283 511.970882a491.492046 491.492046 0 0 0-151.671373-360.939472z m-113.273558 556.768334a51.837052 51.837052 0 0 1-58.236688 54.396906h-4.479745V767.956322a52.477015 52.477015 0 0 1-58.876651 54.396907 20.478835 20.478835 0 0 1-14.719163-5.759673l-138.232138-127.99272-147.191629 127.99272a22.398726 22.398726 0 0 1-14.079199 5.119709 52.477015 52.477015 0 0 1-58.876651-53.756943V319.981801a52.477015 52.477015 0 0 1 58.876651-54.396906h4.479745V255.985441A51.837052 51.837052 0 0 1 384.037681 202.228498h319.981801a51.837052 51.837052 0 0 1 58.236688 54.396906z" fill="#ffffff" p-id="31317"></path></svg>