<svg t="1702176555357" class="icon" viewBox="0 0 1024 1024" version="1.1" xmlns="http://www.w3.org/2000/svg" p-id="26206" width="128" height="128"><path d="M755.182 926.472c-27.798 0-54.103-5.291-78.924-15.886-24.82-10.591-46.497-25.15-65.026-43.679-18.529-18.533-33.089-40.206-43.679-65.022-10.591-24.821-15.886-51.125-15.886-78.927 0-27.797 5.295-54.102 15.886-78.918 10.59-24.821 25.15-46.334 43.679-64.531 18.529-18.204 40.206-32.596 65.026-43.186 24.821-10.591 51.126-15.886 78.924-15.886 27.797 0 54.102 5.295 78.923 15.886 24.821 10.591 46.326 24.983 64.525 43.186 18.204 18.201 32.597 39.714 43.188 64.531 10.591 24.816 15.886 51.122 15.886 78.918 0 27.802-5.295 54.107-15.886 78.927-10.591 24.816-24.984 46.489-43.188 65.022-18.199 18.533-39.709 33.093-64.525 43.679-24.821 10.595-51.126 15.886-78.923 15.886z m100.266-236.274h-73.461V621.7c0-9.269-2.977-17.207-8.935-23.829-5.958-6.617-13.568-9.927-22.837-9.927-9.263 0-16.544 3.31-21.835 9.927-5.295 6.621-7.943 14.56-7.943 23.829v68.499h-64.529c-9.265 0-17.207 3.307-23.824 9.928-6.617 6.617-9.928 14.564-9.928 23.824 0 9.263 3.311 16.219 9.928 20.851 6.621 4.632 14.56 6.945 23.824 6.945h64.529v70.484c0 9.269 2.648 17.212 7.943 23.829 5.291 6.621 12.571 9.927 21.835 9.927 9.269 0 16.879-3.306 22.837-9.927 5.958-6.621 8.935-14.56 8.935-23.829v-70.484h73.461v1.99c9.269 0 17.207-2.648 23.824-7.939 6.626-5.3 9.927-12.58 9.927-21.844 0-9.263-3.306-17.211-9.927-23.823-6.617-6.626-14.555-9.933-23.824-9.933zM610.244 443.006c-2.648 10.591-5.299 20.185-7.946 28.79-2.643 7.28-5.954 14.727-9.924 22.336-3.974 7.609-8.272 13.405-12.904 17.374-5.958 4.632-10.094 9.598-12.413 14.894a137.899 137.899 0 0 0-5.958 16.377 514.253 514.253 0 0 1-5.454 17.369c-1.993 5.958-5.3 11.917-9.927 17.87-15.227 19.855-26.643 39.051-34.256 57.58-7.61 18.533-12.905 36.399-15.881 53.611-2.977 17.207-3.807 34.252-2.486 51.122 1.326 16.882 3.969 33.263 7.943 49.144 2.648 11.908 6.617 24.32 11.912 37.229 5.295 12.901 13.071 26.142 23.328 39.71 10.257 13.568 23.332 26.801 39.217 39.71 15.881 12.904 35.736 25.312 59.565 37.229-15.886 3.301-34.419 6.283-55.596 8.93-17.87 1.988-39.876 3.806-66.014 5.457-26.147 1.66-56.095 2.486-89.847 2.486-17.207 0-37.229-0.659-60.06-1.985a2969.391 2969.391 0 0 1-70.484-4.961 2387.006 2387.006 0 0 1-71.477-6.955c-23.49-2.643-45.004-5.457-64.53-8.439-19.521-2.972-36.07-6.12-49.637-9.431-13.563-3.306-22.007-6.287-25.317-8.931-5.954-5.3-10.586-20.026-13.893-44.18-3.31-24.153-2.318-55.758 2.973-94.809 3.31-21.839 12.079-38.55 26.309-50.133s30.941-20.681 50.137-27.301c19.188-6.617 39.21-12.742 60.057-18.367s39.217-13.4 55.103-23.324c12.576-7.943 22.169-15.393 28.786-22.339 6.617-6.951 11.254-14.064 13.897-21.347 2.648-7.276 3.974-14.889 3.974-22.828 0-7.943-0.33-16.548-0.993-25.817-1.326-13.896-6.121-24.816-14.397-32.755-8.272-7.947-17.041-15.89-26.305-23.829-5.299-3.974-9.927-9.923-13.901-17.87-3.974-7.938-7.279-15.552-9.927-22.832-3.307-8.605-5.954-18.199-7.943-28.786a45.795 45.795 0 0 1-12.9-5.958c-3.311-2.648-6.955-6.621-10.924-11.917-3.969-5.295-7.609-13.234-10.924-23.824-3.306-9.927-4.465-19.191-3.472-27.797 0.992-8.606 2.814-15.881 5.462-21.84 2.648-7.284 6.287-13.571 10.92-18.862 0-22.503 1.325-45.005 3.973-67.511 2.648-19.188 6.784-39.71 12.413-61.545 5.62-21.845 14.727-41.37 27.302-58.573 11.908-16.548 24.65-30.116 38.216-40.702 13.568-10.589 27.631-18.862 42.191-24.821 14.559-5.958 29.118-10.089 43.683-12.408 14.555-2.314 28.456-3.472 41.694-3.472 17.207 0 33.751 1.988 49.637 5.958 15.881 3.969 30.608 9.264 44.175 15.886 13.572 6.617 25.651 14.064 36.237 22.335 10.591 8.272 19.196 16.707 25.813 25.312 15.222 19.193 26.304 40.374 33.26 63.534 6.946 23.165 12.074 45.004 15.385 65.523 3.31 23.824 4.636 47.647 3.974 71.48 3.969 3.306 7.279 7.275 9.923 11.912 2.648 3.969 4.637 9.269 5.959 15.881 1.326 6.617 1.326 14.893 0 24.821-1.322 12.575-3.969 22.503-7.939 29.782-3.974 7.284-8.272 12.904-12.909 16.878-5.301 4.633-10.926 7.945-16.88 9.929z m0 0" p-id="26207" fill="#ffffff"></path></svg>