<svg t="1702176070634" class="icon" viewBox="0 0 1024 1024" version="1.1" xmlns="http://www.w3.org/2000/svg" p-id="12404" width="128" height="128"><path d="M512.07 85.32c-235.61 0-426.6 191-426.6 426.6 0 235.61 191 426.6 426.6 426.6s426.6-191 426.6-426.6c0.01-235.6-190.99-426.6-426.6-426.6z m0 767.89c-188.18 0-341.28-153.1-341.28-341.28 0-188.19 153.1-341.28 341.28-341.28s341.28 153.1 341.28 341.28c0.01 188.18-153.09 341.28-341.28 341.28z" fill="#ffffff" p-id="12405"></path><path d="M682.72 469.36c23.47 0 42.66-19.2 42.66-42.66s-19.2-42.66-42.66-42.66h-55.25l42.75-42.75c16.66-16.66 16.66-43.67 0-60.33-8.33-8.33-19.25-12.49-30.17-12.49s-21.84 4.16-30.17 12.49l-91.57 91.57c-2.5 2.5-4.5 5.28-6.25 8.18-1.75-2.89-3.75-5.68-6.25-8.18l-91.57-91.57c-8.33-8.33-19.25-12.49-30.17-12.49s-21.84 4.16-30.17 12.49c-16.66 16.66-16.66 43.67 0 60.33l42.75 42.75H341.4c-23.47 0-42.66 19.2-42.66 42.66s19.2 42.66 42.66 42.66h127.98v85.32H341.43c-23.47 0-42.66 19.2-42.66 42.66 0 23.46 19.2 42.66 42.66 42.66h127.98v85.32c0 23.46 19.2 42.66 42.66 42.66 23.47 0 42.66-19.2 42.66-42.66V640h127.98c23.47 0 42.66-19.2 42.66-42.66 0-23.46-19.2-42.66-42.66-42.66H554.73v-85.32h127.99z" fill="#ffffff" p-id="12406"></path></svg>