<svg t="1702176403346" class="icon" viewBox="0 0 1024 1024" version="1.1" xmlns="http://www.w3.org/2000/svg" p-id="22905" width="128" height="128"><path d="M919.771429 85.942857h-804.571429c-20.114286 0-36.571429 16.457143-36.571429 36.571429v256c0 20.114286 16.457143 36.571429 36.571429 36.571428h73.142857v475.428572c0 10.971429 5.485714 21.942857 14.628572 29.257143 7.314286 5.485714 14.628571 7.314286 21.942857 7.314285 3.657143 0 7.314286 0 10.971428-1.828571l128-38.4 144.457143 40.228571c5.485714 1.828571 12.8 1.828571 20.114286 0l144.457143-40.228571 126.171428 38.4c10.971429 3.657143 23.771429 1.828571 32.914286-5.485714s14.628571-18.285714 14.628571-29.257143v-475.428572h73.142858c20.114286 0 36.571429-16.457143 36.571428-36.571428v-256c0-20.114286-16.457143-36.571429-36.571428-36.571429z m-256 585.142857h-292.571429v-73.142857h292.571429v73.142857z m0-109.714285h-292.571429v-73.142858h292.571429v73.142858z m219.428571-219.428572h-36.571429v-73.142857c0-20.114286-16.457143-36.571429-36.571428-36.571429h-585.142857c-20.114286 0-36.571429 16.457143-36.571429 36.571429v73.142857h-36.571428v-182.857143h731.428571v182.857143z" fill="#ffffff" p-id="22906"></path></svg>