<svg height="244" node-id="1" sillyvg="true" template-height="244" template-width="251" version="1.1" viewBox="0 0 251 244" width="251" xmlns="http://www.w3.org/2000/svg" xmlns:xlink="http://www.w3.org/1999/xlink"><defs node-id="301"></defs><g node-id="1080"><path d="M 241.28 114.87 C 241.28 75.74 209.48 44.03 170.27 44.03 C 169.66 44.03 169.05 44.06 168.45 44.07 C 156.07 23.32 133.36 9.40 107.39 9.40 C 68.18 9.40 36.38 41.12 36.38 80.25 C 36.38 80.75 36.41 81.25 36.42 81.76 C 14.97 93.95 0.50 116.95 0.50 143.34 C 0.50 182.46 32.29 214.17 71.51 214.17 C 73.74 214.17 75.94 214.06 78.12 213.86 C 91.15 229.60 110.85 239.63 132.91 239.63 C 169.16 239.63 199.04 212.53 203.36 177.54 C 225.91 165.67 241.28 142.06 241.28 114.87 Z" fill="#d6f0ff" fill-rule="nonzero" group-id="1" node-id="304" stroke="none" target-height="230.228" target-width="240.776" target-x="0.5" target-y="9.404"/></g><g node-id="1081"><path d="M 44.62 60.03 L 157.83 60.03 L 157.83 202.82 L 44.62 202.82 Z" fill="#ffffff" fill-rule="nonzero" group-id="2" node-id="308" stroke="none" target-height="142.788" target-width="113.205" target-x="44.623" target-y="60.033"/><g node-id="1086"><g node-id="1145"><path d="M 45.58 60.03 L 185.33 60.03 L 185.33 196.01 L 45.58 196.01 Z" fill="#ffffff" fill-opacity="0.33" fill-rule="nonzero" group-id="2,7,66" node-id="314" stroke="none" target-height="135.97499" target-width="139.746" target-x="45.584" target-y="60.033"/><path d="M 185.33 197.51 L 45.58 197.51 C 44.76 197.51 44.08 196.84 44.08 196.01 L 44.08 60.03 C 44.08 59.20 44.76 58.53 45.58 58.53 L 185.33 58.53 C 186.16 58.53 186.83 59.20 186.83 60.03 L 186.83 196.01 C 186.83 196.84 186.16 197.51 185.33 197.51 Z M 47.08 194.51 L 183.83 194.51 L 183.83 61.53 L 47.08 61.53 L 47.08 194.51 Z" fill="#6e6e96" fill-opacity="0.33" fill-rule="nonzero" group-id="2,7,66" node-id="316" stroke="none" target-height="138.97499" target-width="142.746" target-x="44.084" target-y="58.533"/></g><g node-id="1146"><path d="M 138.98 106.72 L 154.04 106.72 L 154.04 130.09 L 138.98 130.09 Z" fill="#bddfff" fill-opacity="0.33" fill-rule="nonzero" group-id="2,7,67" node-id="321" stroke="none" target-height="23.368996" target-width="15.052994" target-x="138.983" target-y="106.725"/><path d="M 154.03 131.59 L 138.98 131.59 C 138.15 131.59 137.48 130.92 137.48 130.09 L 137.48 106.72 C 137.48 105.90 138.15 105.22 138.98 105.22 L 154.03 105.22 C 154.86 105.22 155.53 105.90 155.53 106.72 L 155.53 130.09 C 155.53 130.92 154.86 131.59 154.03 131.59 Z M 140.48 128.59 L 152.54 128.59 L 152.54 108.22 L 140.48 108.22 L 140.48 128.59 Z" fill="#6e6e96" fill-opacity="0.33" fill-rule="nonzero" group-id="2,7,67" node-id="323" stroke="none" target-height="26.368996" target-width="18.053009" target-x="137.482" target-y="105.225"/></g><g node-id="1147"><path d="M 138.98 135.76 L 154.04 135.76 L 154.04 158.98 L 138.98 158.98 Z" fill="#bddfff" fill-opacity="0.33" fill-rule="nonzero" group-id="2,7,68" node-id="328" stroke="none" target-height="23.225006" target-width="15.052994" target-x="138.983" target-y="135.756"/><path d="M 154.03 160.48 L 138.98 160.48 C 138.15 160.48 137.48 159.81 137.48 158.98 L 137.48 135.75 C 137.48 134.93 138.15 134.25 138.98 134.25 L 154.03 134.25 C 154.86 134.25 155.53 134.93 155.53 135.75 L 155.53 158.98 C 155.53 159.81 154.86 160.48 154.03 160.48 Z M 140.48 157.48 L 152.54 157.48 L 152.54 137.25 L 140.48 137.25 L 140.48 157.48 Z" fill="#6e6e96" fill-opacity="0.33" fill-rule="nonzero" group-id="2,7,68" node-id="330" stroke="none" target-height="26.22499" target-width="18.053009" target-x="137.482" target-y="134.255"/></g><g node-id="1148"><path d="M 117.77 77.34 L 132.83 77.34 L 132.83 101.06 L 117.77 101.06 Z" fill="#bddfff" fill-opacity="0.33" fill-rule="nonzero" group-id="2,7,69" node-id="335" stroke="none" target-height="23.721" target-width="15.054001" target-x="117.774" target-y="77.336"/><path d="M 132.83 102.56 L 117.77 102.56 C 116.94 102.56 116.27 101.89 116.27 101.06 L 116.27 77.34 C 116.27 76.51 116.94 75.84 117.77 75.84 L 132.83 75.84 C 133.66 75.84 134.33 76.51 134.33 77.34 L 134.33 101.06 C 134.33 101.89 133.66 102.56 132.83 102.56 Z M 119.27 99.56 L 131.33 99.56 L 131.33 78.84 L 119.27 78.84 L 119.27 99.56 Z" fill="#6e6e96" fill-opacity="0.33" fill-rule="nonzero" group-id="2,7,69" node-id="337" stroke="none" target-height="26.721" target-width="18.053993" target-x="116.273" target-y="75.836"/></g><g node-id="1149"><path d="M 117.77 106.72 L 132.83 106.72 L 132.83 130.09 L 117.77 130.09 Z" fill="#bddfff" fill-opacity="0.33" fill-rule="nonzero" group-id="2,7,70" node-id="342" stroke="none" target-height="23.368996" target-width="15.054001" target-x="117.774" target-y="106.725"/><path d="M 132.83 131.59 L 117.77 131.59 C 116.94 131.59 116.27 130.92 116.27 130.09 L 116.27 106.72 C 116.27 105.90 116.94 105.22 117.77 105.22 L 132.83 105.22 C 133.66 105.22 134.33 105.90 134.33 106.72 L 134.33 130.09 C 134.33 130.92 133.66 131.59 132.83 131.59 Z M 119.27 128.59 L 131.33 128.59 L 131.33 108.22 L 119.27 108.22 L 119.27 128.59 Z" fill="#6e6e96" fill-opacity="0.33" fill-rule="nonzero" group-id="2,7,70" node-id="344" stroke="none" target-height="26.368996" target-width="18.053993" target-x="116.273" target-y="105.225"/></g><g node-id="1150"><path d="M 160.19 106.72 L 177.91 106.72 L 177.91 130.09 L 160.19 130.09 Z" fill="#bddfff" fill-opacity="0.33" fill-rule="nonzero" group-id="2,7,71" node-id="349" stroke="none" target-height="23.368996" target-width="17.710999" target-x="160.194" target-y="106.725"/><path d="M 177.91 131.59 L 160.19 131.59 C 159.37 131.59 158.69 130.92 158.69 130.09 L 158.69 106.72 C 158.69 105.90 159.37 105.22 160.19 105.22 L 177.91 105.22 C 178.73 105.22 179.41 105.90 179.41 106.72 L 179.41 130.09 C 179.41 130.92 178.73 131.59 177.91 131.59 Z M 161.69 128.59 L 176.41 128.59 L 176.41 108.22 L 161.69 108.22 L 161.69 128.59 Z" fill="#6e6e96" fill-opacity="0.33" fill-rule="nonzero" group-id="2,7,71" node-id="351" stroke="none" target-height="26.368996" target-width="20.710999" target-x="158.694" target-y="105.225"/></g><g node-id="1151"><path d="M 138.98 77.34 L 154.04 77.34 L 154.04 101.06 L 138.98 101.06 Z" fill="#bddfff" fill-opacity="0.33" fill-rule="nonzero" group-id="2,7,72" node-id="356" stroke="none" target-height="23.721" target-width="15.052994" target-x="138.983" target-y="77.336"/><path d="M 154.03 102.56 L 138.98 102.56 C 138.15 102.56 137.48 101.89 137.48 101.06 L 137.48 77.34 C 137.48 76.51 138.15 75.84 138.98 75.84 L 154.03 75.84 C 154.86 75.84 155.53 76.51 155.53 77.34 L 155.53 101.06 C 155.53 101.89 154.86 102.56 154.03 102.56 Z M 140.48 99.56 L 152.54 99.56 L 152.54 78.84 L 140.48 78.84 L 140.48 99.56 Z" fill="#6e6e96" fill-opacity="0.33" fill-rule="nonzero" group-id="2,7,72" node-id="358" stroke="none" target-height="26.721" target-width="18.053009" target-x="137.482" target-y="75.836"/></g><g node-id="1152"><path d="M 117.77 135.76 L 132.83 135.76 L 132.83 158.98 L 117.77 158.98 Z" fill="#bddfff" fill-opacity="0.33" fill-rule="nonzero" group-id="2,7,73" node-id="363" stroke="none" target-height="23.225006" target-width="15.054001" target-x="117.774" target-y="135.756"/><path d="M 132.83 160.48 L 117.77 160.48 C 116.94 160.48 116.27 159.81 116.27 158.98 L 116.27 135.75 C 116.27 134.93 116.94 134.25 117.77 134.25 L 132.83 134.25 C 133.66 134.25 134.33 134.93 134.33 135.75 L 134.33 158.98 C 134.33 159.81 133.66 160.48 132.83 160.48 Z M 119.27 157.48 L 131.33 157.48 L 131.33 137.25 L 119.27 137.25 L 119.27 157.48 Z" fill="#6e6e96" fill-opacity="0.33" fill-rule="nonzero" group-id="2,7,73" node-id="365" stroke="none" target-height="26.22499" target-width="18.053993" target-x="116.273" target-y="134.255"/></g><g node-id="1153"><path d="M 160.19 77.34 L 177.91 77.34 L 177.91 101.06 L 160.19 101.06 Z" fill="#bddfff" fill-opacity="0.33" fill-rule="nonzero" group-id="2,7,74" node-id="370" stroke="none" target-height="23.721" target-width="17.710999" target-x="160.194" target-y="77.336"/><path d="M 177.91 102.56 L 160.19 102.56 C 159.37 102.56 158.69 101.89 158.69 101.06 L 158.69 77.34 C 158.69 76.51 159.37 75.84 160.19 75.84 L 177.91 75.84 C 178.73 75.84 179.41 76.51 179.41 77.34 L 179.41 101.06 C 179.41 101.89 178.73 102.56 177.91 102.56 Z M 161.69 99.56 L 176.41 99.56 L 176.41 78.84 L 161.69 78.84 L 161.69 99.56 Z" fill="#6e6e96" fill-opacity="0.33" fill-rule="nonzero" group-id="2,7,74" node-id="372" stroke="none" target-height="26.721" target-width="20.710999" target-x="158.694" target-y="75.836"/></g><g node-id="1154"><path d="M 160.19 135.76 L 177.91 135.76 L 177.91 158.98 L 160.19 158.98 Z" fill="#bddfff" fill-opacity="0.33" fill-rule="nonzero" group-id="2,7,75" node-id="377" stroke="none" target-height="23.225006" target-width="17.710999" target-x="160.194" target-y="135.756"/><path d="M 177.91 160.48 L 160.19 160.48 C 159.37 160.48 158.69 159.81 158.69 158.98 L 158.69 135.75 C 158.69 134.93 159.37 134.25 160.19 134.25 L 177.91 134.25 C 178.73 134.25 179.41 134.93 179.41 135.75 L 179.41 158.98 C 179.41 159.81 178.73 160.48 177.91 160.48 Z M 161.69 157.48 L 176.41 157.48 L 176.41 137.25 L 161.69 137.25 L 161.69 157.48 Z" fill="#6e6e96" fill-opacity="0.33" fill-rule="nonzero" group-id="2,7,75" node-id="379" stroke="none" target-height="26.22499" target-width="20.710999" target-x="158.694" target-y="134.255"/></g><g node-id="1155"><path d="M 52.91 106.72 L 69.20 106.72 L 69.20 130.09 L 52.91 130.09 Z" fill="#bddfff" fill-opacity="0.33" fill-rule="nonzero" group-id="2,7,76" node-id="384" stroke="none" target-height="23.368996" target-width="16.286" target-x="52.912" target-y="106.725"/><path d="M 69.20 131.59 L 52.91 131.59 C 52.08 131.59 51.41 130.92 51.41 130.09 L 51.41 106.72 C 51.41 105.90 52.08 105.22 52.91 105.22 L 69.20 105.22 C 70.03 105.22 70.70 105.90 70.70 106.72 L 70.70 130.09 C 70.70 130.92 70.03 131.59 69.20 131.59 Z M 54.41 128.59 L 67.70 128.59 L 67.70 108.22 L 54.41 108.22 L 54.41 128.59 Z" fill="#6e6e96" fill-opacity="0.33" fill-rule="nonzero" group-id="2,7,76" node-id="386" stroke="none" target-height="26.368996" target-width="19.286" target-x="51.412" target-y="105.225"/></g><g node-id="1156"><path d="M 52.91 77.34 L 69.20 77.34 L 69.20 101.06 L 52.91 101.06 Z" fill="#bddfff" fill-opacity="0.33" fill-rule="nonzero" group-id="2,7,77" node-id="391" stroke="none" target-height="23.721" target-width="16.286" target-x="52.912" target-y="77.336"/><path d="M 69.20 102.56 L 52.91 102.56 C 52.08 102.56 51.41 101.89 51.41 101.06 L 51.41 77.34 C 51.41 76.51 52.08 75.84 52.91 75.84 L 69.20 75.84 C 70.03 75.84 70.70 76.51 70.70 77.34 L 70.70 101.06 C 70.70 101.89 70.03 102.56 69.20 102.56 Z M 54.41 99.56 L 67.70 99.56 L 67.70 78.84 L 54.41 78.84 L 54.41 99.56 Z" fill="#6e6e96" fill-opacity="0.33" fill-rule="nonzero" group-id="2,7,77" node-id="393" stroke="none" target-height="26.721" target-width="19.286" target-x="51.412" target-y="75.836"/></g><g node-id="1157"><path d="M 52.91 135.76 L 69.20 135.76 L 69.20 158.98 L 52.91 158.98 Z" fill="#bddfff" fill-opacity="0.33" fill-rule="nonzero" group-id="2,7,78" node-id="398" stroke="none" target-height="23.225006" target-width="16.286" target-x="52.912" target-y="135.756"/><path d="M 69.20 160.48 L 52.91 160.48 C 52.08 160.48 51.41 159.81 51.41 158.98 L 51.41 135.75 C 51.41 134.93 52.08 134.25 52.91 134.25 L 69.20 134.25 C 70.03 134.25 70.70 134.93 70.70 135.75 L 70.70 158.98 C 70.70 159.81 70.03 160.48 69.20 160.48 Z M 54.41 157.48 L 67.70 157.48 L 67.70 137.25 L 54.41 137.25 L 54.41 157.48 Z" fill="#6e6e96" fill-opacity="0.33" fill-rule="nonzero" group-id="2,7,78" node-id="400" stroke="none" target-height="26.22499" target-width="19.286" target-x="51.412" target-y="134.255"/></g><g node-id="1158"><path d="M 75.36 135.76 L 90.41 135.76 L 90.41 158.98 L 75.36 158.98 Z" fill="#bddfff" fill-opacity="0.33" fill-rule="nonzero" group-id="2,7,79" node-id="405" stroke="none" target-height="23.225006" target-width="15.050995" target-x="75.357" target-y="135.756"/><path d="M 90.41 160.48 L 75.36 160.48 C 74.53 160.48 73.86 159.81 73.86 158.98 L 73.86 135.75 C 73.86 134.93 74.53 134.25 75.36 134.25 L 90.41 134.25 C 91.24 134.25 91.91 134.93 91.91 135.75 L 91.91 158.98 C 91.91 159.81 91.24 160.48 90.41 160.48 Z M 76.86 157.48 L 88.91 157.48 L 88.91 137.25 L 76.86 137.25 L 76.86 157.48 Z" fill="#6e6e96" fill-opacity="0.33" fill-rule="nonzero" group-id="2,7,79" node-id="407" stroke="none" target-height="26.22499" target-width="18.050995" target-x="73.857" target-y="134.255"/></g><g node-id="1159"><path d="M 75.36 106.72 L 90.41 106.72 L 90.41 130.09 L 75.36 130.09 Z" fill="#bddfff" fill-opacity="0.33" fill-rule="nonzero" group-id="2,7,80" node-id="412" stroke="none" target-height="23.368996" target-width="15.050995" target-x="75.357" target-y="106.725"/><path d="M 90.41 131.59 L 75.36 131.59 C 74.53 131.59 73.86 130.92 73.86 130.09 L 73.86 106.72 C 73.86 105.90 74.53 105.22 75.36 105.22 L 90.41 105.22 C 91.24 105.22 91.91 105.90 91.91 106.72 L 91.91 130.09 C 91.91 130.92 91.24 131.59 90.41 131.59 Z M 76.86 128.59 L 88.91 128.59 L 88.91 108.22 L 76.86 108.22 L 76.86 128.59 Z" fill="#6e6e96" fill-opacity="0.33" fill-rule="nonzero" group-id="2,7,80" node-id="414" stroke="none" target-height="26.368996" target-width="18.050995" target-x="73.857" target-y="105.225"/></g><g node-id="1160"><path d="M 96.57 135.76 L 111.62 135.76 L 111.62 158.98 L 96.57 158.98 Z" fill="#bddfff" fill-opacity="0.33" fill-rule="nonzero" group-id="2,7,81" node-id="419" stroke="none" target-height="23.225006" target-width="15.053001" target-x="96.566" target-y="135.756"/><path d="M 111.62 160.48 L 96.57 160.48 C 95.74 160.48 95.07 159.81 95.07 158.98 L 95.07 135.75 C 95.07 134.93 95.74 134.25 96.57 134.25 L 111.62 134.25 C 112.45 134.25 113.12 134.93 113.12 135.75 L 113.12 158.98 C 113.12 159.81 112.45 160.48 111.62 160.48 Z M 98.07 157.48 L 110.12 157.48 L 110.12 137.25 L 98.07 137.25 L 98.07 157.48 Z" fill="#6e6e96" fill-opacity="0.33" fill-rule="nonzero" group-id="2,7,81" node-id="421" stroke="none" target-height="26.22499" target-width="18.053001" target-x="95.066" target-y="134.255"/></g><g node-id="1161"><path d="M 96.57 77.34 L 111.62 77.34 L 111.62 101.06 L 96.57 101.06 Z" fill="#bddfff" fill-opacity="0.33" fill-rule="nonzero" group-id="2,7,82" node-id="426" stroke="none" target-height="23.721" target-width="15.053001" target-x="96.566" target-y="77.336"/><path d="M 111.62 102.56 L 96.57 102.56 C 95.74 102.56 95.07 101.89 95.07 101.06 L 95.07 77.34 C 95.07 76.51 95.74 75.84 96.57 75.84 L 111.62 75.84 C 112.45 75.84 113.12 76.51 113.12 77.34 L 113.12 101.06 C 113.12 101.89 112.45 102.56 111.62 102.56 Z M 98.07 99.56 L 110.12 99.56 L 110.12 78.84 L 98.07 78.84 L 98.07 99.56 Z" fill="#6e6e96" fill-opacity="0.33" fill-rule="nonzero" group-id="2,7,82" node-id="428" stroke="none" target-height="26.721" target-width="18.053001" target-x="95.066" target-y="75.836"/></g><g node-id="1162"><path d="M 96.57 106.72 L 111.62 106.72 L 111.62 130.09 L 96.57 130.09 Z" fill="#bddfff" fill-opacity="0.33" fill-rule="nonzero" group-id="2,7,83" node-id="433" stroke="none" target-height="23.368996" target-width="15.053001" target-x="96.566" target-y="106.725"/><path d="M 111.62 131.59 L 96.57 131.59 C 95.74 131.59 95.07 130.92 95.07 130.09 L 95.07 106.72 C 95.07 105.90 95.74 105.22 96.57 105.22 L 111.62 105.22 C 112.45 105.22 113.12 105.90 113.12 106.72 L 113.12 130.09 C 113.12 130.92 112.45 131.59 111.62 131.59 Z M 98.07 128.59 L 110.12 128.59 L 110.12 108.22 L 98.07 108.22 L 98.07 128.59 Z" fill="#6e6e96" fill-opacity="0.33" fill-rule="nonzero" group-id="2,7,83" node-id="435" stroke="none" target-height="26.368996" target-width="18.053001" target-x="95.066" target-y="105.225"/></g><g node-id="1163"><path d="M 75.36 77.34 L 90.41 77.34 L 90.41 101.06 L 75.36 101.06 Z" fill="#bddfff" fill-opacity="0.33" fill-rule="nonzero" group-id="2,7,84" node-id="440" stroke="none" target-height="23.721" target-width="15.050995" target-x="75.357" target-y="77.336"/><path d="M 90.41 102.56 L 75.36 102.56 C 74.53 102.56 73.86 101.89 73.86 101.06 L 73.86 77.34 C 73.86 76.51 74.53 75.84 75.36 75.84 L 90.41 75.84 C 91.24 75.84 91.91 76.51 91.91 77.34 L 91.91 101.06 C 91.91 101.89 91.24 102.56 90.41 102.56 Z M 76.86 99.56 L 88.91 99.56 L 88.91 78.84 L 76.86 78.84 L 76.86 99.56 Z" fill="#6e6e96" fill-opacity="0.33" fill-rule="nonzero" group-id="2,7,84" node-id="442" stroke="none" target-height="26.721" target-width="18.050995" target-x="73.857" target-y="75.836"/></g><g node-id="1164"><path d="M 41.82 60.03 L 189.11 60.03 L 189.11 66.83 L 41.82 66.83 Z" fill="#d5b697" fill-opacity="0.33" fill-rule="nonzero" group-id="2,7,85" node-id="447" stroke="none" target-height="6.799999" target-width="147.29001" target-x="41.818" target-y="60.033"/><path d="M 189.11 68.33 L 41.82 68.33 C 40.99 68.33 40.32 67.66 40.32 66.83 L 40.32 60.03 C 40.32 59.20 40.99 58.53 41.82 58.53 L 189.11 58.53 C 189.94 58.53 190.61 59.20 190.61 60.03 L 190.61 66.83 C 190.61 67.66 189.94 68.33 189.11 68.33 Z M 43.32 65.33 L 187.61 65.33 L 187.61 61.53 L 43.32 61.53 L 43.32 65.33 Z" fill="#6e6e96" fill-opacity="0.33" fill-rule="nonzero" group-id="2,7,85" node-id="449" stroke="none" target-height="9.799999" target-width="150.29001" target-x="40.318" target-y="58.533"/></g><g node-id="1165"><path d="M 138.98 165.03 L 154.04 165.03 L 154.04 188.25 L 138.98 188.25 Z" fill="#bddfff" fill-opacity="0.33" fill-rule="nonzero" group-id="2,7,86" node-id="454" stroke="none" target-height="23.225006" target-width="15.052994" target-x="138.983" target-y="165.025"/><path d="M 154.03 189.75 L 138.98 189.75 C 138.15 189.75 137.48 189.08 137.48 188.25 L 137.48 165.03 C 137.48 164.20 138.15 163.53 138.98 163.53 L 154.03 163.53 C 154.86 163.53 155.53 164.20 155.53 165.03 L 155.53 188.25 C 155.53 189.08 154.86 189.75 154.03 189.75 Z M 140.48 186.75 L 152.54 186.75 L 152.54 166.53 L 140.48 166.53 L 140.48 186.75 Z" fill="#6e6e96" fill-opacity="0.33" fill-rule="nonzero" group-id="2,7,86" node-id="456" stroke="none" target-height="26.225006" target-width="18.053009" target-x="137.482" target-y="163.525"/></g><g node-id="1166"><path d="M 160.19 165.03 L 177.91 165.03 L 177.91 188.25 L 160.19 188.25 Z" fill="#bddfff" fill-opacity="0.33" fill-rule="nonzero" group-id="2,7,87" node-id="461" stroke="none" target-height="23.225006" target-width="17.710999" target-x="160.194" target-y="165.025"/><path d="M 177.91 189.75 L 160.19 189.75 C 159.37 189.75 158.69 189.08 158.69 188.25 L 158.69 165.03 C 158.69 164.20 159.37 163.53 160.19 163.53 L 177.91 163.53 C 178.73 163.53 179.41 164.20 179.41 165.03 L 179.41 188.25 C 179.41 189.08 178.73 189.75 177.91 189.75 Z M 161.69 186.75 L 176.41 186.75 L 176.41 166.53 L 161.69 166.53 L 161.69 186.75 Z" fill="#6e6e96" fill-opacity="0.33" fill-rule="nonzero" group-id="2,7,87" node-id="463" stroke="none" target-height="26.225006" target-width="20.710999" target-x="158.694" target-y="163.525"/></g><g node-id="1167"><path d="M 52.91 165.03 L 69.20 165.03 L 69.20 188.25 L 52.91 188.25 Z" fill="#bddfff" fill-opacity="0.33" fill-rule="nonzero" group-id="2,7,88" node-id="468" stroke="none" target-height="23.225006" target-width="16.286" target-x="52.912" target-y="165.025"/><path d="M 69.20 189.75 L 52.91 189.75 C 52.08 189.75 51.41 189.08 51.41 188.25 L 51.41 165.03 C 51.41 164.20 52.08 163.53 52.91 163.53 L 69.20 163.53 C 70.03 163.53 70.70 164.20 70.70 165.03 L 70.70 188.25 C 70.70 189.08 70.03 189.75 69.20 189.75 Z M 54.41 186.75 L 67.70 186.75 L 67.70 166.53 L 54.41 166.53 L 54.41 186.75 Z" fill="#6e6e96" fill-opacity="0.33" fill-rule="nonzero" group-id="2,7,88" node-id="470" stroke="none" target-height="26.225006" target-width="19.286" target-x="51.412" target-y="163.525"/></g><g node-id="1168"><path d="M 75.36 165.03 L 90.41 165.03 L 90.41 188.25 L 75.36 188.25 Z" fill="#bddfff" fill-opacity="0.33" fill-rule="nonzero" group-id="2,7,89" node-id="475" stroke="none" target-height="23.225006" target-width="15.050995" target-x="75.357" target-y="165.025"/><path d="M 90.41 189.75 L 75.36 189.75 C 74.53 189.75 73.86 189.08 73.86 188.25 L 73.86 165.03 C 73.86 164.20 74.53 163.53 75.36 163.53 L 90.41 163.53 C 91.24 163.53 91.91 164.20 91.91 165.03 L 91.91 188.25 C 91.91 189.08 91.24 189.75 90.41 189.75 Z M 76.86 186.75 L 88.91 186.75 L 88.91 166.53 L 76.86 166.53 L 76.86 186.75 Z" fill="#6e6e96" fill-opacity="0.33" fill-rule="nonzero" group-id="2,7,89" node-id="477" stroke="none" target-height="26.225006" target-width="18.050995" target-x="73.857" target-y="163.525"/></g><g node-id="1169"><path d="M 96.57 165.03 L 132.89 165.03 L 132.89 196.00 L 96.57 196.00 Z" fill="#e4bc96" fill-opacity="0.33" fill-rule="nonzero" group-id="2,7,90" node-id="482" stroke="none" target-height="30.980011" target-width="36.32" target-x="96.566" target-y="165.025"/><path d="M 132.89 197.51 L 96.57 197.51 C 95.74 197.51 95.07 196.83 95.07 196.01 L 95.07 165.03 C 95.07 164.20 95.74 163.53 96.57 163.53 L 132.89 163.53 C 133.71 163.53 134.39 164.20 134.39 165.03 L 134.39 196.01 C 134.39 196.83 133.71 197.51 132.89 197.51 Z M 98.07 194.51 L 131.39 194.51 L 131.39 166.53 L 98.07 166.53 L 98.07 194.51 Z" fill="#6e6e96" fill-opacity="0.33" fill-rule="nonzero" group-id="2,7,90" node-id="484" stroke="none" target-height="33.979996" target-width="39.32" target-x="95.066" target-y="163.526"/></g><path d="M 114.52 197.51 C 113.69 197.51 113.02 196.84 113.02 196.01 L 113.02 165.03 C 113.02 164.20 113.69 163.53 114.52 163.53 C 115.35 163.53 116.02 164.20 116.02 165.03 L 116.02 196.01 C 116.02 196.84 115.35 197.51 114.52 197.51 Z" fill="#6e6e96" fill-opacity="0.33" fill-rule="nonzero" group-id="2,7" node-id="487" stroke="none" target-height="33.981995" target-width="3" target-x="113.018" target-y="163.526"/></g><path d="M 82.53 193.54 L 119.06 193.54 L 119.06 210.84 L 82.53 210.84 Z" fill="#d6f0ff" fill-rule="nonzero" group-id="2" node-id="490" stroke="none" target-height="17.302994" target-width="36.528" target-x="82.528" target-y="193.539"/><path d="M 97.71 30.26 L 77.40 30.26 C 76.02 30.26 74.90 29.14 74.90 27.76 C 74.90 26.38 76.02 25.26 77.40 25.26 L 97.71 25.26 C 99.09 25.26 100.21 26.38 100.21 27.76 C 100.21 29.14 99.09 30.26 97.71 30.26 Z" fill="#ffffff" fill-rule="nonzero" group-id="2" node-id="492" stroke="none" target-height="5" target-width="25.307999" target-x="74.901" target-y="25.261"/><path d="M 111.01 40.77 L 87.20 40.77 C 85.82 40.77 84.70 39.65 84.70 38.27 C 84.70 36.88 85.82 35.77 87.20 35.77 L 111.01 35.77 C 112.39 35.77 113.51 36.88 113.51 38.27 C 113.51 39.65 112.39 40.77 111.01 40.77 Z" fill="#ffffff" fill-rule="nonzero" group-id="2" node-id="494" stroke="none" target-height="5" target-width="28.807" target-x="84.704" target-y="35.765"/></g><g node-id="1082"><g node-id="1087"><path d="M 150.46 30.15 L 214.98 30.15 L 214.98 39.34 L 150.46 39.34 Z" fill="#ebebf7" fill-rule="nonzero" group-id="3,8" node-id="500" stroke="none" target-height="9.191002" target-width="64.520996" target-x="150.459" target-y="30.153"/><path d="M 214.98 40.84 L 150.46 40.84 C 149.63 40.84 148.96 40.17 148.96 39.34 L 148.96 30.15 C 148.96 29.32 149.63 28.65 150.46 28.65 L 214.98 28.65 C 215.81 28.65 216.48 29.32 216.48 30.15 L 216.48 39.34 C 216.48 40.17 215.81 40.84 214.98 40.84 Z M 151.96 37.84 L 213.48 37.84 L 213.48 31.65 L 151.96 31.65 L 151.96 37.84 Z" fill="#ccccde" fill-rule="nonzero" group-id="3,8" node-id="502" stroke="none" target-height="12.191002" target-width="67.520996" target-x="148.959" target-y="28.653"/></g><g node-id="1088"><path d="M 131.81 39.19 L 233.31 39.19 L 233.31 201.98 L 131.81 201.98 Z" fill="#ffffff" fill-rule="nonzero" group-id="3,9" node-id="507" stroke="none" target-height="162.795" target-width="101.498" target-x="131.809" target-y="39.185"/><path d="M 233.31 203.48 L 131.81 203.48 C 130.98 203.48 130.31 202.81 130.31 201.98 L 130.31 39.19 C 130.31 38.36 130.98 37.69 131.81 37.69 L 233.31 37.69 C 234.13 37.69 234.81 38.36 234.81 39.19 L 234.81 201.98 C 234.81 202.81 234.13 203.48 233.31 203.48 Z M 133.31 200.48 L 231.81 200.48 L 231.81 40.69 L 133.31 40.69 L 133.31 200.48 Z" fill="#ccccde" fill-rule="nonzero" group-id="3,9" node-id="509" stroke="none" target-height="165.795" target-width="104.498" target-x="130.309" target-y="37.685"/></g><g node-id="1089"><path d="M 140.53 47.32 L 225.16 47.32 L 225.16 201.98 L 140.53 201.98 Z" fill="#cfe7ff" fill-rule="nonzero" group-id="3,10" node-id="514" stroke="none" target-height="154.662" target-width="84.62599" target-x="140.531" target-y="47.319"/><path d="M 225.16 203.48 L 140.53 203.48 C 139.70 203.48 139.03 202.81 139.03 201.98 L 139.03 47.32 C 139.03 46.49 139.70 45.82 140.53 45.82 L 225.16 45.82 C 225.99 45.82 226.66 46.49 226.66 47.32 L 226.66 201.98 C 226.66 202.81 225.99 203.48 225.16 203.48 Z M 142.03 200.48 L 223.66 200.48 L 223.66 48.82 L 142.03 48.82 L 142.03 200.48 Z" fill="#ccccde" fill-rule="nonzero" group-id="3,10" node-id="516" stroke="none" target-height="157.661" target-width="87.62599" target-x="139.031" target-y="45.819"/></g><g node-id="1090"><path d="M 141.61 127.73 L 221.05 48.29 L 163.43 48.45 L 141.61 70.92 Z" fill="#ffffff" fill-opacity="0.49" fill-rule="nonzero" group-id="3,11" node-id="521" stroke="none" target-height="79.438995" target-width="79.43901" target-x="141.611" target-y="48.288"/></g><g node-id="1091"><path d="M 224.45 69.64 L 140.99 153.10 L 163.91 153.76 L 224.45 93.22 Z" fill="#ffffff" fill-opacity="0.27" fill-rule="nonzero" group-id="3,12" node-id="526" stroke="none" target-height="84.122" target-width="83.462006" target-x="140.991" target-y="69.639"/></g><g node-id="1092"><path d="M 140.53 153.15 L 225.16 153.15 L 225.16 201.98 L 140.53 201.98 Z" fill="#cfe7ff" fill-rule="nonzero" group-id="3,13" node-id="531" stroke="none" target-height="48.826004" target-width="84.62599" target-x="140.531" target-y="153.152"/><path d="M 225.16 203.48 L 140.53 203.48 C 139.70 203.48 139.03 202.81 139.03 201.98 L 139.03 153.15 C 139.03 152.32 139.70 151.65 140.53 151.65 L 225.16 151.65 C 225.99 151.65 226.66 152.32 226.66 153.15 L 226.66 201.98 C 226.66 202.81 225.99 203.48 225.16 203.48 Z M 142.03 200.48 L 223.66 200.48 L 223.66 154.65 L 142.03 154.65 L 142.03 200.48 Z" fill="#ccccde" fill-rule="nonzero" group-id="3,13" node-id="533" stroke="none" target-height="51.826004" target-width="87.62599" target-x="139.031" target-y="151.653"/></g><g node-id="1093"><g node-id="1170"><path d="M 162.75 165.13 L 141.78 185.49 L 141.78 197.93 L 162.75 177.56 Z" fill="#ffffff" fill-opacity="0.1813" fill-rule="nonzero" group-id="3,14,91" node-id="540" stroke="none" target-height="32.802002" target-width="20.973999" target-x="141.781" target-y="165.13"/></g><path d="M 141.66 176.06 L 152.92 165.13 L 141.66 165.13" fill="#ffffff" fill-opacity="0.1813" fill-rule="nonzero" group-id="3,14,92" node-id="545" stroke="none" target-height="10.931992" target-width="11.259003" target-x="141.66" target-y="165.13"/></g><g node-id="1094"><g node-id="1172"><path d="M 193.00 165.13 L 172.64 185.49 L 172.64 197.93 L 193.00 177.56 Z" fill="#ffffff" fill-opacity="0.1813" fill-rule="nonzero" group-id="3,15,93" node-id="553" stroke="none" target-height="32.802002" target-width="20.363007" target-x="172.637" target-y="165.13"/></g><path d="M 173.33 176.06 L 184.26 165.13 L 173.33 165.13" fill="#ffffff" fill-opacity="0.1813" fill-rule="nonzero" group-id="3,15,94" node-id="558" stroke="none" target-height="10.931992" target-width="10.932999" target-x="173.329" target-y="165.13"/></g><g node-id="1095"><g node-id="1174"><path d="M 224.01 165.13 L 201.38 185.49 L 201.38 197.93 L 224.01 177.56 Z" fill="#ffffff" fill-opacity="0.1813" fill-rule="nonzero" group-id="3,16,95" node-id="566" stroke="none" target-height="32.802002" target-width="22.626999" target-x="201.384" target-y="165.13"/></g><path d="M 202.15 176.06 L 214.30 165.13 L 202.15 165.13" fill="#ffffff" fill-opacity="0.1813" fill-rule="nonzero" group-id="3,16,96" node-id="571" stroke="none" target-height="10.931992" target-width="12.147995" target-x="202.154" target-y="165.13"/></g><path d="M 149.82 47.32 L 152.82 47.32 L 152.82 153.15 L 149.82 153.15 Z" fill="#ccccde" fill-rule="nonzero" group-id="3" node-id="575" stroke="none" target-height="105.83299" target-width="3" target-x="149.816" target-y="47.319"/><path d="M 160.62 47.32 L 163.62 47.32 L 163.62 153.15 L 160.62 153.15 Z" fill="#ccccde" fill-rule="nonzero" group-id="3" node-id="577" stroke="none" target-height="105.83299" target-width="3" target-x="160.615" target-y="47.319"/><path d="M 171.14 47.32 L 174.14 47.32 L 174.14 153.15 L 171.14 153.15 Z" fill="#ccccde" fill-rule="nonzero" group-id="3" node-id="579" stroke="none" target-height="105.83299" target-width="3" target-x="171.143" target-y="47.319"/><path d="M 182.21 47.32 L 185.21 47.32 L 185.21 153.15 L 182.21 153.15 Z" fill="#ccccde" fill-rule="nonzero" group-id="3" node-id="581" stroke="none" target-height="105.83299" target-width="3" target-x="182.21" target-y="47.319"/><path d="M 192.74 47.32 L 195.74 47.32 L 195.74 153.15 L 192.74 153.15 Z" fill="#ccccde" fill-rule="nonzero" group-id="3" node-id="583" stroke="none" target-height="105.83299" target-width="3" target-x="192.738" target-y="47.319"/><path d="M 203.00 47.32 L 206.00 47.32 L 206.00 153.15 L 203.00 153.15 Z" fill="#ccccde" fill-rule="nonzero" group-id="3" node-id="585" stroke="none" target-height="105.83299" target-width="3" target-x="202.995" target-y="47.319"/><path d="M 213.25 47.32 L 216.25 47.32 L 216.25 153.15 L 213.25 153.15 Z" fill="#ccccde" fill-rule="nonzero" group-id="3" node-id="587" stroke="none" target-height="105.83299" target-width="3" target-x="213.254" target-y="47.319"/><path d="M 225.16 71.14 L 140.53 71.14 C 139.70 71.14 139.03 70.47 139.03 69.64 C 139.03 68.81 139.70 68.14 140.53 68.14 L 225.16 68.14 C 225.99 68.14 226.66 68.81 226.66 69.64 C 226.66 70.47 225.99 71.14 225.16 71.14 Z" fill="#ccccde" fill-rule="nonzero" group-id="3" node-id="589" stroke="none" target-height="3" target-width="87.62599" target-x="139.031" target-y="68.136"/><path d="M 225.16 92.73 L 140.53 92.73 C 139.70 92.73 139.03 92.06 139.03 91.23 C 139.03 90.40 139.70 89.73 140.53 89.73 L 225.16 89.73 C 225.99 89.73 226.66 90.40 226.66 91.23 C 226.66 92.06 225.99 92.73 225.16 92.73 Z" fill="#ccccde" fill-rule="nonzero" group-id="3" node-id="591" stroke="none" target-height="3" target-width="87.62599" target-x="139.031" target-y="89.73"/><path d="M 225.16 113.25 L 140.53 113.25 C 139.70 113.25 139.03 112.58 139.03 111.75 C 139.03 110.92 139.70 110.25 140.53 110.25 L 225.16 110.25 C 225.99 110.25 226.66 110.92 226.66 111.75 C 226.66 112.58 225.99 113.25 225.16 113.25 Z" fill="#ccccde" fill-rule="nonzero" group-id="3" node-id="593" stroke="none" target-height="3" target-width="87.62599" target-x="139.031" target-y="110.248"/><path d="M 140.53 130.76 L 225.16 130.76 L 225.16 133.76 L 140.53 133.76 Z" fill="#ccccde" fill-rule="nonzero" group-id="3" node-id="595" stroke="none" target-height="3" target-width="84.62599" target-x="140.531" target-y="130.762"/><path d="M 164.00 161.01 L 172.64 161.01 L 172.64 201.98 L 164.00 201.98 Z" fill="#f0f0ff" fill-rule="nonzero" group-id="3,17" node-id="599" stroke="none" target-height="40.96901" target-width="8.633987" target-x="164.003" target-y="161.012"/><path d="M 172.64 203.48 L 164.00 203.48 C 163.18 203.48 162.50 202.81 162.50 201.98 L 162.50 161.01 C 162.50 160.18 163.18 159.51 164.00 159.51 L 172.64 159.51 C 173.47 159.51 174.14 160.18 174.14 161.01 L 174.14 201.98 C 174.14 202.81 173.47 203.48 172.64 203.48 Z M 165.50 200.48 L 171.14 200.48 L 171.14 162.51 L 165.50 162.51 L 165.50 200.48 Z" fill="#ccccde" fill-rule="nonzero" group-id="3,17" node-id="601" stroke="none" target-height="43.968994" target-width="11.633987" target-x="162.503" target-y="159.511"/><path d="M 192.75 159.14 L 200.85 159.14 L 200.85 201.98 L 192.75 201.98 Z" fill="#f0f0ff" fill-rule="nonzero" group-id="3,18" node-id="606" stroke="none" target-height="42.837997" target-width="8.097992" target-x="192.753" target-y="159.143"/><path d="M 200.85 203.48 L 192.75 203.48 C 191.93 203.48 191.25 202.81 191.25 201.98 L 191.25 159.14 C 191.25 158.31 191.93 157.64 192.75 157.64 L 200.85 157.64 C 201.68 157.64 202.35 158.31 202.35 159.14 L 202.35 201.98 C 202.35 202.81 201.68 203.48 200.85 203.48 Z M 194.25 200.48 L 199.35 200.48 L 199.35 160.64 L 194.25 160.64 L 194.25 200.48 Z" fill="#ccccde" fill-rule="nonzero" group-id="3,18" node-id="608" stroke="none" target-height="45.837997" target-width="11.097992" target-x="191.253" target-y="157.642"/><path d="M 140.53 153.15 L 225.16 153.15 L 225.16 165.13 L 140.53 165.13 Z" fill="#f0f0ff" fill-rule="nonzero" group-id="3,19" node-id="613" stroke="none" target-height="11.978012" target-width="84.62599" target-x="140.531" target-y="153.152"/><path d="M 225.16 166.63 L 140.53 166.63 C 139.70 166.63 139.03 165.96 139.03 165.13 L 139.03 153.15 C 139.03 152.32 139.70 151.65 140.53 151.65 L 225.16 151.65 C 225.99 151.65 226.66 152.32 226.66 153.15 L 226.66 165.13 C 226.66 165.96 225.99 166.63 225.16 166.63 Z M 142.03 163.63 L 223.66 163.63 L 223.66 154.65 L 142.03 154.65 L 142.03 163.63 Z" fill="#ccccde" fill-rule="nonzero" group-id="3,19" node-id="615" stroke="none" target-height="14.978012" target-width="87.62599" target-x="139.031" target-y="151.652"/><path d="M 168.55 22.94 L 196.89 22.94 L 196.89 30.15 L 168.55 30.15 Z" fill="#ebebf7" fill-rule="nonzero" group-id="3,20" node-id="620" stroke="none" target-height="7.2179985" target-width="28.34401" target-x="168.547" target-y="22.936"/><path d="M 196.89 31.65 L 168.55 31.65 C 167.72 31.65 167.05 30.98 167.05 30.15 L 167.05 22.94 C 167.05 22.11 167.72 21.44 168.55 21.44 L 196.89 21.44 C 197.72 21.44 198.39 22.11 198.39 22.94 L 198.39 30.15 C 198.39 30.98 197.72 31.65 196.89 31.65 Z M 170.05 28.65 L 195.39 28.65 L 195.39 24.44 L 170.05 24.44 L 170.05 28.65 Z" fill="#ccccde" fill-rule="nonzero" group-id="3,20" node-id="622" stroke="none" target-height="10.2179985" target-width="31.34401" target-x="167.047" target-y="21.436"/><path d="M 182.72 24.44 C 181.89 24.44 181.22 23.77 181.22 22.94 L 181.22 11.16 C 181.22 10.33 181.89 9.66 182.72 9.66 C 183.55 9.66 184.22 10.33 184.22 11.16 L 184.22 22.94 C 184.22 23.77 183.55 24.44 182.72 24.44 Z" fill="#ccccde" fill-rule="nonzero" group-id="3" node-id="625" stroke="none" target-height="14.778001" target-width="3" target-x="181.22" target-y="9.658"/><path d="M 128.23 197.86 L 238.51 197.86 L 238.51 206.23 L 128.23 206.23 Z" fill="#f0f0ff" fill-rule="nonzero" group-id="3,21" node-id="629" stroke="none" target-height="8.367004" target-width="110.283005" target-x="128.226" target-y="197.859"/><path d="M 238.51 207.73 L 128.23 207.73 C 127.40 207.73 126.73 207.06 126.73 206.23 L 126.73 197.86 C 126.73 197.03 127.40 196.36 128.23 196.36 L 238.51 196.36 C 239.34 196.36 240.01 197.03 240.01 197.86 L 240.01 206.23 C 240.01 207.06 239.34 207.73 238.51 207.73 Z M 129.73 204.73 L 237.01 204.73 L 237.01 199.36 L 129.73 199.36 L 129.73 204.73 Z" fill="#ccccde" fill-rule="nonzero" group-id="3,21" node-id="631" stroke="none" target-height="11.367004" target-width="113.283005" target-x="126.726" target-y="196.36"/></g><g node-id="1083"><g node-id="1101"><path d="M 94.65 206.23 L 8.99 206.23 L 8.99 133.02 L 51.82 105.60 L 94.65 133.02 Z" fill="#ffffff" fill-rule="nonzero" group-id="4,22" node-id="638" stroke="none" target-height="100.631004" target-width="85.659004" target-x="8.989" target-y="105.598"/><path d="M 96.15 207.73 L 7.49 207.73 L 7.49 132.20 L 51.82 103.82 L 96.15 132.20 L 96.15 207.73 Z M 10.49 204.73 L 93.15 204.73 L 93.15 133.84 L 51.82 107.38 L 10.49 133.84 L 10.49 204.73 Z" fill="#ccccde" fill-rule="nonzero" group-id="4,22" node-id="640" stroke="none" target-height="103.911" target-width="88.659004" target-x="7.489" target-y="103.818"/></g><g node-id="1102"><path d="M 51.82 100.95 L 1.46 131.56 L 1.46 136.60 L 8.99 136.60 L 51.82 110.16 L 94.53 136.95 L 101.14 137.05 L 101.14 131.56 Z" fill="#e0e6fc" fill-rule="nonzero" group-id="4,23" node-id="645" stroke="none" target-height="36.102005" target-width="99.675" target-x="1.462" target-y="100.948"/><path d="M 101.14 138.55 C 101.13 138.55 101.12 138.55 101.11 138.55 L 94.51 138.45 C 94.23 138.44 93.97 138.36 93.74 138.22 L 51.81 111.92 L 9.78 137.87 C 9.54 138.02 9.27 138.10 8.99 138.10 L 1.46 138.10 C 0.63 138.10 -0.04 137.43 -0.04 136.60 L -0.04 131.56 C -0.04 131.04 0.23 130.55 0.68 130.28 L 51.04 99.67 C 51.52 99.37 52.13 99.38 52.61 99.67 L 101.93 130.29 C 102.37 130.56 102.64 131.04 102.64 131.56 L 102.64 137.05 C 102.64 137.45 102.47 137.84 102.19 138.12 C 101.91 138.40 101.53 138.55 101.14 138.55 Z M 94.97 135.45 L 99.64 135.53 L 99.64 132.40 L 51.81 102.71 L 2.96 132.41 L 2.96 135.10 L 8.56 135.10 L 51.03 108.88 C 51.52 108.58 52.13 108.58 52.62 108.89 L 94.97 135.45 Z" fill="#ccccde" fill-rule="nonzero" group-id="4,23" node-id="647" stroke="none" target-height="39.176003" target-width="102.674" target-x="-0.038" target-y="99.374"/></g><g node-id="1103"><path d="M 17.08 169.56 L 46.15 169.56 L 46.15 188.75 L 17.08 188.75 Z" fill="#d4eaff" fill-rule="nonzero" group-id="4,24" node-id="652" stroke="none" target-height="19.188004" target-width="29.077" target-x="17.076" target-y="169.562"/><path d="M 46.15 190.25 L 17.08 190.25 C 16.25 190.25 15.58 189.58 15.58 188.75 L 15.58 169.56 C 15.58 168.73 16.25 168.06 17.08 168.06 L 46.15 168.06 C 46.98 168.06 47.65 168.73 47.65 169.56 L 47.65 188.75 C 47.65 189.58 46.98 190.25 46.15 190.25 Z M 18.58 187.25 L 44.65 187.25 L 44.65 171.06 L 18.58 171.06 L 18.58 187.25 Z" fill="#ccccde" fill-rule="nonzero" group-id="4,24" node-id="654" stroke="none" target-height="22.188004" target-width="32.078" target-x="15.576" target-y="168.062"/></g><g node-id="1104"><path d="M 8.99 194.57 L 94.65 194.57 L 94.65 206.23 L 8.99 206.23 Z" fill="#fcebe3" fill-rule="nonzero" group-id="4,25" node-id="659" stroke="none" target-height="11.660004" target-width="85.659004" target-x="8.989" target-y="194.566"/><path d="M 94.65 207.73 L 8.99 207.73 C 8.16 207.73 7.49 207.06 7.49 206.23 L 7.49 194.57 C 7.49 193.74 8.16 193.07 8.99 193.07 L 94.65 193.07 C 95.48 193.07 96.15 193.74 96.15 194.57 L 96.15 206.23 C 96.15 207.06 95.48 207.73 94.65 207.73 Z M 10.49 204.73 L 93.15 204.73 L 93.15 196.07 L 10.49 196.07 L 10.49 204.73 Z" fill="#ccccde" fill-rule="nonzero" group-id="4,25" node-id="661" stroke="none" target-height="14.660004" target-width="88.659004" target-x="7.489" target-y="193.067"/></g><g node-id="1105"><path d="M 47.37 206.23 C 47.37 206.21 47.37 206.19 47.37 206.16 C 47.37 202.55 44.85 199.63 41.73 199.63 C 40.29 199.63 38.98 200.26 37.98 201.29 C 37.21 197.00 33.93 193.77 30.00 193.77 C 28.21 193.77 26.56 194.45 25.21 195.58 C 23.52 192.89 20.79 191.13 17.69 191.13 C 13.45 191.13 9.87 194.43 8.76 198.94 C 8.34 198.84 7.91 198.77 7.46 198.77 C 4.15 198.77 1.46 201.89 1.46 205.74 C 1.46 205.91 1.47 206.06 1.48 206.23 L 47.37 206.23 L 47.37 206.23 Z" fill="#cce8d6" fill-rule="nonzero" group-id="4,26" node-id="666" stroke="none" target-height="15.102997" target-width="45.912003" target-x="1.46" target-y="191.126"/><path d="M 47.37 207.73 L 1.48 207.73 C 0.68 207.73 0.03 207.10 -0.02 206.31 C -0.03 206.07 -0.04 205.91 -0.04 205.74 C -0.04 200.99 3.44 197.13 7.70 197.28 C 9.33 192.71 13.29 189.63 17.70 189.63 C 20.68 189.63 23.53 191.05 25.56 193.50 C 26.93 192.69 28.43 192.27 30.00 192.27 C 33.87 192.27 37.32 194.92 38.84 198.82 C 39.74 198.36 40.73 198.13 41.73 198.13 C 45.67 198.13 48.87 201.73 48.87 206.16 C 48.87 206.20 48.87 206.25 48.87 206.30 C 48.83 207.09 48.17 207.73 47.37 207.73 Z M 3.04 204.73 L 45.72 204.73 C 45.22 202.68 43.62 201.12 41.73 201.12 C 40.49 201.12 39.60 201.78 39.06 202.33 C 38.67 202.74 38.09 202.89 37.55 202.72 C 37.01 202.56 36.61 202.11 36.51 201.56 C 35.85 197.91 33.11 195.27 30.00 195.27 C 28.63 195.27 27.31 195.78 26.18 196.73 C 25.85 197.01 25.41 197.13 24.98 197.07 C 24.55 197.00 24.17 196.75 23.94 196.38 C 22.45 193.99 20.17 192.62 17.69 192.62 C 14.26 192.62 11.19 195.37 10.21 199.30 C 10.12 199.69 9.87 200.03 9.53 200.23 C 9.18 200.44 8.77 200.50 8.38 200.40 C 8.07 200.31 7.76 200.27 7.46 200.27 C 5.27 200.27 3.43 202.20 3.04 204.73 Z" fill="#ccccde" fill-rule="nonzero" group-id="4,26" node-id="668" stroke="none" target-height="18.102997" target-width="48.911" target-x="-0.038" target-y="189.626"/></g><g node-id="1106"><path d="M 59.11 169.56 L 81.45 169.56 L 81.45 206.23 L 59.11 206.23 Z" fill="#ffdede" fill-rule="nonzero" group-id="4,27" node-id="673" stroke="none" target-height="36.666" target-width="22.340996" target-x="59.109" target-y="169.562"/><path d="M 81.45 207.73 L 59.11 207.73 C 58.28 207.73 57.61 207.06 57.61 206.23 L 57.61 169.56 C 57.61 168.74 58.28 168.06 59.11 168.06 L 81.45 168.06 C 82.28 168.06 82.95 168.74 82.95 169.56 L 82.95 206.23 C 82.95 207.06 82.28 207.73 81.45 207.73 Z M 60.61 204.73 L 79.95 204.73 L 79.95 171.06 L 60.61 171.06 L 60.61 204.73 Z" fill="#ccccde" fill-rule="nonzero" group-id="4,27" node-id="675" stroke="none" target-height="39.666" target-width="25.340996" target-x="57.609" target-y="168.063"/></g><path d="M 94.65 164.23 L 8.99 164.23 C 8.16 164.23 7.49 163.56 7.49 162.73 C 7.49 161.90 8.16 161.23 8.99 161.23 L 94.65 161.23 C 95.48 161.23 96.15 161.90 96.15 162.73 C 96.15 163.56 95.48 164.23 94.65 164.23 Z" fill="#ccccde" fill-rule="nonzero" group-id="4" node-id="678" stroke="none" target-height="3" target-width="88.659004" target-x="7.489" target-y="161.23"/><path d="M 17.08 137.91 L 32.72 137.91 L 32.72 155.73 L 17.08 155.73 Z" fill="#d4eaff" fill-rule="nonzero" group-id="4,28,97" node-id="684" stroke="none" target-height="17.817001" target-width="15.645" target-x="17.076" target-y="137.913"/><path d="M 32.72 157.23 L 17.08 157.23 C 16.25 157.23 15.58 156.56 15.58 155.73 L 15.58 137.91 C 15.58 137.09 16.25 136.41 17.08 136.41 L 32.72 136.41 C 33.55 136.41 34.22 137.09 34.22 137.91 L 34.22 155.73 C 34.22 156.56 33.55 157.23 32.72 157.23 Z M 18.58 154.23 L 31.22 154.23 L 31.22 139.41 L 18.58 139.41 L 18.58 154.23 Z" fill="#ccccde" fill-rule="nonzero" group-id="4,28,97" node-id="686" stroke="none" target-height="20.817001" target-width="18.645" target-x="15.576" target-y="136.413"/><path d="M 32.72 148.32 L 17.08 148.32 C 16.25 148.32 15.58 147.65 15.58 146.82 C 15.58 145.99 16.25 145.32 17.08 145.32 L 32.72 145.32 C 33.55 145.32 34.22 145.99 34.22 146.82 C 34.22 147.65 33.55 148.32 32.72 148.32 Z" fill="#ccccde" fill-rule="nonzero" group-id="4,28" node-id="689" stroke="none" target-height="3" target-width="18.646" target-x="15.576" target-y="145.322"/><path d="M 70.60 137.91 L 86.24 137.91 L 86.24 155.73 L 70.60 155.73 Z" fill="#d4eaff" fill-rule="nonzero" group-id="4,29,98" node-id="696" stroke="none" target-height="17.817001" target-width="15.647003" target-x="70.597" target-y="137.913"/><path d="M 86.24 157.23 L 70.60 157.23 C 69.77 157.23 69.10 156.56 69.10 155.73 L 69.10 137.91 C 69.10 137.09 69.77 136.41 70.60 136.41 L 86.24 136.41 C 87.07 136.41 87.74 137.09 87.74 137.91 L 87.74 155.73 C 87.74 156.56 87.07 157.23 86.24 157.23 Z M 72.10 154.23 L 84.74 154.23 L 84.74 139.41 L 72.10 139.41 L 72.10 154.23 Z" fill="#ccccde" fill-rule="nonzero" group-id="4,29,98" node-id="698" stroke="none" target-height="20.817001" target-width="18.647003" target-x="69.097" target-y="136.413"/><path d="M 86.24 148.32 L 70.60 148.32 C 69.77 148.32 69.10 147.65 69.10 146.82 C 69.10 145.99 69.77 145.32 70.60 145.32 L 86.24 145.32 C 87.07 145.32 87.74 145.99 87.74 146.82 C 87.74 147.65 87.07 148.32 86.24 148.32 Z" fill="#ccccde" fill-rule="nonzero" group-id="4,29" node-id="701" stroke="none" target-height="3" target-width="18.647003" target-x="69.097" target-y="145.322"/><path d="M 43.91 137.91 L 59.56 137.91 L 59.56 155.73 L 43.91 155.73 Z" fill="#d4eaff" fill-rule="nonzero" group-id="4,30,99" node-id="708" stroke="none" target-height="17.817001" target-width="15.645" target-x="43.915" target-y="137.913"/><path d="M 59.56 157.23 L 43.91 157.23 C 43.09 157.23 42.41 156.56 42.41 155.73 L 42.41 137.91 C 42.41 137.09 43.09 136.41 43.91 136.41 L 59.56 136.41 C 60.39 136.41 61.06 137.09 61.06 137.91 L 61.06 155.73 C 61.06 156.56 60.39 157.23 59.56 157.23 Z M 45.41 154.23 L 58.06 154.23 L 58.06 139.41 L 45.41 139.41 L 45.41 154.23 Z" fill="#ccccde" fill-rule="nonzero" group-id="4,30,99" node-id="710" stroke="none" target-height="20.817001" target-width="18.645" target-x="42.415" target-y="136.413"/><path d="M 59.56 148.32 L 43.91 148.32 C 43.09 148.32 42.41 147.65 42.41 146.82 C 42.41 145.99 43.09 145.32 43.91 145.32 L 59.56 145.32 C 60.39 145.32 61.06 145.99 61.06 146.82 C 61.06 147.65 60.39 148.32 59.56 148.32 Z" fill="#ccccde" fill-rule="nonzero" group-id="4,30" node-id="713" stroke="none" target-height="3" target-width="18.646" target-x="42.415" target-y="145.322"/><path d="M 31.65 190.25 C 30.82 190.25 30.15 189.58 30.15 188.75 L 30.15 169.56 C 30.15 168.73 30.82 168.06 31.65 168.06 C 32.48 168.06 33.15 168.73 33.15 169.56 L 33.15 188.75 C 33.15 189.58 32.48 190.25 31.65 190.25 Z" fill="#ccccde" fill-rule="nonzero" group-id="4" node-id="716" stroke="none" target-height="22.188004" target-width="3.000002" target-x="30.15" target-y="168.062"/><path d="M 56.09 202.04 L 84.47 202.04 L 84.47 206.23 L 56.09 206.23 Z" fill="#f0f0ff" fill-rule="nonzero" group-id="4,31" node-id="720" stroke="none" target-height="4.1880035" target-width="28.388" target-x="56.086" target-y="202.04"/><path d="M 84.47 207.73 L 56.09 207.73 C 55.26 207.73 54.59 207.06 54.59 206.23 L 54.59 202.04 C 54.59 201.21 55.26 200.54 56.09 200.54 L 84.47 200.54 C 85.30 200.54 85.97 201.21 85.97 202.04 L 85.97 206.23 C 85.97 207.06 85.30 207.73 84.47 207.73 Z M 57.59 204.73 L 82.97 204.73 L 82.97 203.54 L 57.59 203.54 L 57.59 204.73 Z" fill="#ccccde" fill-rule="nonzero" group-id="4,31" node-id="722" stroke="none" target-height="7.1880035" target-width="31.388" target-x="54.586" target-y="200.541"/><path d="M 107.56 206.23 C 107.56 206.21 107.56 206.20 107.56 206.18 C 107.56 203.77 105.88 201.81 103.79 201.81 C 102.83 201.81 101.95 202.24 101.28 202.92 C 100.77 200.05 98.57 197.90 95.94 197.90 C 94.75 197.90 93.64 198.35 92.75 199.11 C 91.62 197.30 89.79 196.13 87.72 196.13 C 84.88 196.13 82.49 198.34 81.74 201.35 C 81.46 201.28 81.17 201.24 80.88 201.24 C 78.66 201.24 76.86 203.33 76.86 205.90 C 76.86 206.01 76.87 206.12 76.88 206.23 L 107.56 206.23 L 107.56 206.23 Z" fill="#cce8d6" fill-rule="nonzero" group-id="4,32" node-id="727" stroke="none" target-height="10.103989" target-width="30.705002" target-x="76.859" target-y="196.126"/><path d="M 107.56 207.73 L 76.88 207.73 C 76.09 207.73 75.44 207.13 75.38 206.35 C 75.37 206.20 75.36 206.05 75.36 205.90 C 75.36 202.58 77.73 199.86 80.69 199.75 C 81.92 196.68 84.67 194.63 87.72 194.63 C 89.74 194.63 91.66 195.53 93.09 197.09 C 93.98 196.63 94.95 196.40 95.94 196.40 C 98.58 196.40 100.94 198.08 102.12 200.62 C 102.65 200.42 103.22 200.31 103.79 200.31 C 106.70 200.31 109.06 202.95 109.06 206.19 C 109.06 206.22 109.06 206.27 109.06 206.31 C 109.02 207.10 108.36 207.73 107.56 207.73 Z M 78.54 204.73 L 105.75 204.73 C 105.35 203.88 104.62 203.31 103.79 203.31 C 103.13 203.31 102.65 203.67 102.36 203.97 C 101.97 204.37 101.39 204.52 100.85 204.36 C 100.31 204.19 99.91 203.74 99.81 203.19 C 99.41 200.99 97.79 199.40 95.94 199.40 C 95.15 199.40 94.38 199.69 93.71 200.25 C 93.38 200.53 92.94 200.66 92.51 200.59 C 92.08 200.52 91.70 200.27 91.47 199.90 C 90.57 198.46 89.20 197.62 87.72 197.62 C 85.65 197.62 83.79 199.31 83.19 201.71 C 83.10 202.10 82.85 202.44 82.51 202.64 C 82.16 202.85 81.75 202.91 81.36 202.81 C 80.13 202.49 78.97 203.39 78.54 204.73 Z" fill="#ccccde" fill-rule="nonzero" group-id="4,32" node-id="729" stroke="none" target-height="13.102997" target-width="33.704002" target-x="75.359" target-y="194.626"/><path d="M 62.83 189.58 C 62.00 189.58 61.33 188.91 61.33 188.08 L 61.33 183.43 C 61.33 182.60 62.00 181.93 62.83 181.93 C 63.66 181.93 64.33 182.60 64.33 183.43 L 64.33 188.08 C 64.33 188.91 63.66 189.58 62.83 189.58 Z" fill="#ccccde" fill-rule="nonzero" group-id="4" node-id="732" stroke="none" target-height="7.651993" target-width="3" target-x="61.333" target-y="181.925"/></g><g node-id="1084"><g node-id="1112"><path d="M 2.03 155.23 L 2.03 200.49 C 2.05 198.69 -0.23 221.66 25.77 221.66 C 46.83 221.66 45.79 194.10 45.79 194.10 C 45.79 194.10 45.79 152.44 45.79 142.35 C 45.79 130.18 54.30 132.24 57.89 132.28 L 69.98 132.28 L 68.56 121.76 L 56.46 121.76 C 52.88 122.19 36.30 120.74 36.30 139.91 C 36.30 149.99 36.30 190.31 36.30 190.31 C 36.56 199.27 36.97 212.48 25.55 212.48 C 6.96 212.48 10.77 193.67 10.77 193.67 L 10.77 149.65" fill="#bcbccc" fill-rule="nonzero" group-id="5,33" node-id="739" stroke="none" target-height="100.917" target-width="70.213" target-x="-0.229" target-y="120.738"/><path d="M 25.77 223.16 C 10.87 223.16 4.75 215.89 2.25 209.80 C 1.08 206.98 0.28 202.74 0.53 200.55 C 0.58 201.18 1.14 201.84 1.95 201.88 L 2.02 200.49 L 0.54 200.49 C 0.54 200.48 0.54 200.47 0.54 200.47 L 0.53 200.47 C 0.53 200.47 0.53 200.48 0.53 200.49 L 0.53 200.49 L 0.53 155.23 L 3.53 155.23 L 3.53 200.50 L 2.74 200.50 L 3.50 200.61 C 3.49 200.69 3.07 208.06 8.19 213.74 C 12.01 218.00 17.93 220.15 25.77 220.15 C 31.41 220.15 35.84 218.39 38.95 214.93 C 45.65 207.46 44.31 194.40 44.30 194.26 L 44.29 194.10 L 44.29 142.35 C 44.29 137.98 45.31 134.90 47.40 132.93 C 50.19 130.31 54.06 130.55 56.62 130.71 C 57.09 130.74 57.52 130.77 57.90 130.78 L 68.27 130.78 L 67.25 123.26 L 56.55 123.26 C 56.15 123.30 55.63 123.33 55.01 123.36 C 49.42 123.63 37.80 124.18 37.80 139.91 L 37.80 190.31 C 37.99 197.00 38.26 206.12 33.63 210.87 C 31.63 212.94 28.91 213.98 25.55 213.98 C 20.54 213.98 16.56 212.40 13.74 209.28 C 8.55 203.53 9.18 194.61 9.27 193.60 L 9.27 149.65 L 12.27 149.65 L 12.26 193.82 C 12.25 193.90 11.47 202.31 15.98 207.28 C 18.21 209.74 21.43 210.98 25.55 210.98 C 28.10 210.98 30.04 210.26 31.48 208.78 C 35.22 204.93 34.98 196.55 34.80 190.43 L 34.80 190.31 L 34.80 139.91 C 34.80 121.32 49.38 120.62 54.87 120.36 C 55.45 120.34 55.93 120.31 56.28 120.27 L 56.46 120.26 L 69.87 120.26 L 71.70 133.78 L 57.89 133.78 C 57.45 133.77 56.96 133.74 56.43 133.71 C 54.14 133.56 51.30 133.38 49.45 135.12 C 48.02 136.47 47.29 138.90 47.29 142.35 L 47.29 194.02 C 47.42 195.34 48.56 208.69 41.20 216.92 C 37.49 221.06 32.30 223.16 25.77 223.16 Z" fill="#6e6e96" fill-rule="nonzero" group-id="5,33" node-id="741" stroke="none" target-height="102.894" target-width="71.421" target-x="0.278" target-y="120.261"/><path d="M 56.42 239.80 L 56.42 114.80 C 56.42 103.83 60.68 101.36 69.86 101.36 L 120.26 101.36 C 131.24 101.36 133.71 103.83 133.71 114.80 L 133.71 239.80 L 56.42 239.80 Z" fill="#ff8f8f" fill-rule="nonzero" group-id="5,33" node-id="743" stroke="none" target-height="138.439" target-width="77.284" target-x="56.421" target-y="101.361"/><g node-id="1179"><path d="M 69.32 115.14 L 120.51 115.14 L 120.51 150.17 L 69.32 150.17 Z" fill="#b0e4ff" fill-rule="nonzero" group-id="5,33,100" node-id="747" stroke="none" target-height="35.030006" target-width="51.187996" target-x="69.318" target-y="115.141"/><path d="M 120.50 150.67 L 69.32 150.67 C 69.04 150.67 68.82 150.45 68.82 150.17 L 68.82 115.14 C 68.82 114.86 69.04 114.64 69.32 114.64 L 120.51 114.64 C 120.78 114.64 121.01 114.86 121.01 115.14 L 121.01 150.17 C 121.00 150.45 120.78 150.67 120.50 150.67 Z M 69.82 149.67 L 120.01 149.67 L 120.01 115.64 L 69.82 115.64 L 69.82 149.67 Z" fill="#6e6e96" fill-rule="nonzero" group-id="5,33,100" node-id="749" stroke="none" target-height="36.030006" target-width="52.187996" target-x="68.818" target-y="114.641"/></g><g node-id="1180"><path d="M 56.20 115.03 L 56.20 119.51 C 56.20 108.53 60.45 106.06 69.64 106.06 L 120.04 106.06 C 124.35 106.06 127.34 106.45 129.39 107.57 L 129.39 220.87 L 133.71 220.87 L 133.71 110.10 L 133.19 109.80 C 132.28 103.23 129.00 101.58 120.04 101.58 L 69.64 101.58 C 60.45 101.58 56.20 104.05 56.20 115.03 Z M 129.40 107.58 C 129.52 107.64 129.64 107.71 129.75 107.78 L 129.40 107.58 Z" fill="#ffffff" fill-opacity="0.28" fill-rule="nonzero" group-id="5,33,101" node-id="754" stroke="none" target-height="119.286" target-width="77.507" target-x="56.198" target-y="101.585"/></g><g node-id="1181"><path d="M 1.97 147.79 L 1.97 164.53 L 11.01 164.53 L 11.01 156.83 L 12.55 158.37 L 19.98 150.94 C 24.44 146.48 19.98 141.01 19.98 141.01 L 19.12 140.16 L 25.18 134.03 C 26.32 132.87 26.32 130.97 25.16 129.81 L 24.56 129.21 C 23.40 128.05 21.51 128.05 20.35 129.21 L 1.97 147.79 Z" fill="#ff8f8f" fill-rule="nonzero" group-id="5,33,102" node-id="759" stroke="none" target-height="36.485" target-width="24.355001" target-x="1.97" target-y="128.048"/><path d="M 11.01 166.03 L 1.97 166.03 C 1.14 166.03 0.47 165.36 0.47 164.53 L 0.47 147.79 C 0.47 147.40 0.63 147.02 0.90 146.74 L 19.28 128.15 C 20.13 127.30 21.26 126.84 22.45 126.84 C 23.65 126.84 24.78 127.30 25.62 128.15 L 26.23 128.75 C 27.97 130.49 27.97 133.33 26.24 135.09 L 21.23 140.16 C 23.05 142.48 25.26 147.78 21.04 152.00 L 13.61 159.43 C 13.32 159.72 12.92 159.87 12.51 159.87 L 12.51 164.53 C 12.51 165.36 11.84 166.03 11.01 166.03 Z M 3.47 163.03 L 9.51 163.03 L 9.51 156.83 C 9.51 156.23 9.88 155.68 10.44 155.45 C 11.00 155.21 11.64 155.34 12.07 155.77 L 12.55 156.25 L 18.92 149.88 C 22.19 146.61 19.27 142.55 18.86 142.01 L 18.07 141.22 C 17.48 140.63 17.48 139.69 18.06 139.10 L 24.11 132.98 C 24.67 132.41 24.67 131.44 24.10 130.87 L 23.50 130.27 C 22.94 129.71 21.96 129.71 21.41 130.27 L 3.47 148.41 L 3.47 163.03 Z" fill="#6e6e96" fill-rule="nonzero" group-id="5,33,102" node-id="761" stroke="none" target-height="39.195007" target-width="27.504002" target-x="0.47" target-y="126.838"/></g><path d="M 135.21 241.30 L 54.92 241.30 L 54.92 114.80 C 54.92 102.36 60.64 99.86 69.86 99.86 L 120.26 99.86 C 132.13 99.86 135.21 102.93 135.21 114.80 L 135.21 241.30 Z M 57.92 238.30 L 132.21 238.30 L 132.21 114.80 C 132.21 104.65 130.42 102.86 120.26 102.86 L 69.86 102.86 C 61.60 102.86 57.92 104.58 57.92 114.80 L 57.92 238.30 Z" fill="#6e6e96" fill-rule="nonzero" group-id="5,33" node-id="764" stroke="none" target-height="141.439" target-width="80.28499" target-x="54.921" target-y="99.861"/><path d="M 51.19 225.35 L 137.88 225.35 L 137.88 240.81 L 51.19 240.81 Z" fill="#bebec9" fill-rule="nonzero" group-id="5,33" node-id="766" stroke="none" target-height="15.457001" target-width="86.69301" target-x="51.189" target-y="225.352"/><path d="M 2.03 164.53 L 11.07 164.53 L 11.07 170.69 L 2.03 170.69 Z" fill="#ffffff" fill-rule="nonzero" group-id="5,33,103" node-id="770" stroke="none" target-height="6.1599884" target-width="9.04" target-x="2.028" target-y="164.533"/><path d="M 11.07 172.19 L 2.03 172.19 C 1.20 172.19 0.53 171.52 0.53 170.69 L 0.53 164.53 C 0.53 163.71 1.20 163.03 2.03 163.03 L 11.07 163.03 C 11.90 163.03 12.57 163.71 12.57 164.53 L 12.57 170.69 C 12.57 171.52 11.90 172.19 11.07 172.19 Z M 3.53 169.19 L 9.57 169.19 L 9.57 166.03 L 3.53 166.03 L 3.53 169.19 Z" fill="#6e6e96" fill-rule="nonzero" group-id="5,33,103" node-id="772" stroke="none" target-height="9.159988" target-width="12.04" target-x="0.528" target-y="163.033"/><path d="M 69.11 160.16 L 79.42 160.16 L 79.42 184.81 L 69.11 184.81 Z" fill="#e9f2f5" fill-rule="nonzero" group-id="5,33,104" node-id="777" stroke="none" target-height="24.641998" target-width="10.305" target-x="69.111" target-y="160.163"/><path d="M 79.42 186.31 L 69.11 186.31 C 68.28 186.31 67.61 185.63 67.61 184.81 L 67.61 160.16 C 67.61 159.34 68.28 158.66 69.11 158.66 L 79.42 158.66 C 80.25 158.66 80.92 159.34 80.92 160.16 L 80.92 184.81 C 80.92 185.63 80.24 186.31 79.42 186.31 Z M 70.61 183.31 L 77.92 183.31 L 77.92 161.66 L 70.61 161.66 L 70.61 183.31 Z" fill="#6e6e96" fill-rule="nonzero" group-id="5,33,104" node-id="779" stroke="none" target-height="27.641998" target-width="13.305" target-x="67.611" target-y="158.663"/><path d="M 69.11 160.16 L 79.42 160.16 L 79.42 168.01 L 69.11 168.01 Z" fill="#6e6e96" fill-opacity="0.25" fill-rule="nonzero" group-id="5,33,105" node-id="784" stroke="none" target-height="7.8430023" target-width="10.305" target-x="69.111" target-y="160.163"/><path d="M 69.32 115.14 L 120.51 115.14 L 120.51 118.83 L 69.32 118.83 Z" fill="#6e6e96" fill-opacity="0.15" fill-rule="nonzero" group-id="5,33,106" node-id="789" stroke="none" target-height="3.6930008" target-width="51.187996" target-x="69.318" target-y="115.141"/><path d="M 120.50 142.02 L 97.32 118.83 L 86.47 118.83 L 117.81 150.17 L 120.50 150.17 Z" fill="#ffffff" fill-opacity="0.53" fill-rule="nonzero" group-id="5,33,107" node-id="794" stroke="none" target-height="31.337006" target-width="34.033997" target-x="86.471" target-y="118.834"/><path d="M 108.99 150.17 L 77.66 118.83 L 73.37 118.83 L 104.70 150.17 Z" fill="#ffffff" fill-opacity="0.25" fill-rule="nonzero" group-id="5,33,108" node-id="799" stroke="none" target-height="31.337006" target-width="35.626" target-x="73.367" target-y="118.834"/><path d="M 120.50 151.67 L 69.32 151.67 C 68.49 151.67 67.82 151.00 67.82 150.17 L 67.82 115.14 C 67.82 114.31 68.49 113.64 69.32 113.64 L 120.51 113.64 C 121.33 113.64 122.01 114.31 122.01 115.14 L 122.01 150.17 C 122.00 151.00 121.33 151.67 120.50 151.67 Z M 70.82 148.67 L 119.01 148.67 L 119.01 116.64 L 70.82 116.64 L 70.82 148.67 Z" fill="#6e6e96" fill-rule="nonzero" group-id="5,33" node-id="802" stroke="none" target-height="38.030006" target-width="54.187996" target-x="67.818" target-y="113.641"/><path d="M 56.42 220.87 L 133.71 220.87 L 133.71 225.35 L 56.42 225.35 Z" fill="#6e6e96" fill-opacity="0.15" fill-rule="nonzero" group-id="5,33,109" node-id="806" stroke="none" target-height="4.479004" target-width="77.285995" target-x="56.421" target-y="220.872"/><path d="M 51.19 236.33 L 137.88 236.33 L 137.88 240.81 L 51.19 240.81 Z" fill="#6e6e96" fill-opacity="0.25" fill-rule="nonzero" group-id="5,33,110" node-id="811" stroke="none" target-height="4.479004" target-width="86.69301" target-x="51.189" target-y="236.328"/><path d="M 51.19 225.35 L 137.88 225.35 L 137.88 229.83 L 51.19 229.83 Z" fill="#ffffff" fill-opacity="0.15" fill-rule="nonzero" group-id="5,33,111" node-id="816" stroke="none" target-height="4.4789886" target-width="86.69301" target-x="51.189" target-y="225.352"/><path d="M 137.88 242.31 L 51.19 242.31 C 50.36 242.31 49.69 241.64 49.69 240.81 L 49.69 225.35 C 49.69 224.52 50.36 223.85 51.19 223.85 L 137.88 223.85 C 138.71 223.85 139.38 224.52 139.38 225.35 L 139.38 240.81 C 139.38 241.64 138.71 242.31 137.88 242.31 Z M 52.69 239.31 L 136.38 239.31 L 136.38 226.85 L 52.69 226.85 L 52.69 239.31 Z" fill="#6e6e96" fill-rule="nonzero" group-id="5,33" node-id="819" stroke="none" target-height="18.457" target-width="89.69301" target-x="49.689" target-y="223.852"/><path d="M 61.48 107.37 L 61.48 220.87 L 56.42 220.87 L 56.42 114.80 C 56.42 114.80 58.12 108.34 61.48 107.37 Z" fill="#6e6e96" fill-opacity="0.15" fill-rule="nonzero" group-id="5,33,112" node-id="823" stroke="none" target-height="113.504" target-width="5.053997" target-x="56.421" target-y="107.368"/><path d="M 56.42 128.24 L 51.86 128.24 C 51.86 128.24 42.79 129.25 42.79 141.68 C 42.79 154.12 42.79 201.16 42.79 201.16 C 42.79 201.16 40.77 217.96 27.67 217.96 C 14.56 217.96 5.83 211.24 5.83 200.49 C 5.83 189.73 5.83 170.69 5.83 170.69 L 2.03 170.69 L 2.03 202.32 C 2.03 202.32 3.38 221.66 25.77 221.66 C 48.17 221.66 45.91 199.94 45.91 198.12 C 45.91 196.30 45.79 142.35 45.79 142.35 C 45.79 142.35 44.96 132.18 55.97 132.18 L 56.42 128.24 Z" fill="#6e6e96" fill-opacity="0.25" fill-rule="nonzero" group-id="5,33,113" node-id="828" stroke="none" target-height="93.412" target-width="54.392002" target-x="2.029" target-y="128.243"/><path d="M 53.09 121.88 L 56.42 121.88 L 56.42 131.72 L 53.09 131.72 Z" fill="#6e6e96" fill-opacity="0.25" fill-rule="nonzero" group-id="5,33,114" node-id="833" stroke="none" target-height="9.834" target-width="3.328003" target-x="53.093" target-y="121.881"/><path d="M 7.32 164.53 L 7.32 152.10 L 10.24 152.10 L 11.47 153.33 L 17.40 147.39 C 17.40 147.39 18.04 142.20 15.39 139.55 L 25.15 129.79 C 25.15 129.79 26.60 132.62 24.47 134.74 C 22.33 136.87 19.98 141.01 19.98 141.01 C 19.98 141.01 23.64 146.50 21.21 149.31 C 18.78 152.13 13.37 158.37 13.37 158.37 L 10.35 155.35 L 10.35 163.52 L 7.32 164.53 Z" fill="#6e6e96" fill-opacity="0.15" fill-rule="nonzero" group-id="5,33,115" node-id="838" stroke="none" target-height="34.740997" target-width="19.275" target-x="7.323" target-y="129.792"/></g><g node-id="1113"><path d="M 28.77 241.23 L 237.69 241.23 L 237.69 244.23 L 28.77 244.23 Z" fill="#6e6e96" fill-opacity="0.2" fill-rule="nonzero" group-id="5,34" node-id="844" stroke="none" target-height="3" target-width="208.926" target-x="28.768" target-y="241.23"/></g><path d="M 3.79 239.31 L 14.39 239.31 L 14.39 242.31 L 3.79 242.31 Z" fill="#6e6e96" fill-opacity="0.17" fill-rule="nonzero" group-id="5,35" node-id="849" stroke="none" target-height="3" target-width="10.604" target-x="3.787" target-y="239.309"/></g><g node-id="1085"><g node-id="1115"><path d="M 153.30 160.58 C 153.30 160.58 153.72 151.36 162.71 151.36 C 171.70 151.36 151.63 169.81 153.30 160.58 Z" fill="#ffffff" fill-opacity="0.54" fill-rule="nonzero" group-id="6,36" node-id="856" stroke="none" target-height="18.450012" target-width="20.075989" target-x="151.626" target-y="151.357"/></g><g node-id="1116"><path d="M 148.08 188.79 C 141.31 188.79 136.95 182.28 138.39 175.80 L 144.24 152.34 C 145.68 145.87 152.38 140.56 159.15 140.56 L 213.46 140.56 C 220.23 140.56 226.59 145.93 227.60 152.49 L 231.64 175.66 C 232.65 182.22 227.94 188.79 221.18 188.79 L 148.08 188.79 Z" fill="#ffe35f" fill-rule="nonzero" group-id="6,37" node-id="861" stroke="none" target-height="48.224" target-width="95.69701" target-x="136.954" target-y="140.563"/><path d="M 148.08 190.29 L 148.08 190.29 C 144.60 190.29 141.49 188.80 139.31 186.09 C 136.99 183.19 136.09 179.23 136.92 175.48 L 142.79 151.98 C 144.36 144.88 151.70 139.06 159.14 139.06 L 213.46 139.06 C 220.95 139.06 227.96 144.98 229.08 152.26 L 233.12 175.40 C 233.71 179.23 232.57 183.22 230.09 186.12 C 227.78 188.81 224.62 190.29 221.18 190.29 L 148.08 190.29 Z M 159.15 142.06 C 153.13 142.06 146.98 146.92 145.71 152.67 L 139.84 176.16 C 139.22 178.99 139.89 182.02 141.65 184.21 C 143.25 186.19 145.53 187.29 148.08 187.29 L 221.18 187.28 C 223.73 187.28 226.09 186.18 227.81 184.17 C 229.74 181.93 230.62 178.83 230.16 175.89 L 226.13 152.74 C 225.22 146.84 219.54 142.06 213.47 142.06 L 159.15 142.06 Z" fill="#6e6e96" fill-rule="nonzero" group-id="6,37" node-id="863" stroke="none" target-height="51.224" target-width="97.615005" target-x="136.092" target-y="139.063"/></g><g node-id="1117"><path d="M 150.18 155.25 L 148.88 161.79 C 147.76 166.70 147.88 170.73 153.19 170.73 L 182.89 170.73 L 182.89 146.31 L 161.87 146.31 C 156.19 146.31 151.68 148.70 150.18 155.25 Z M 222.88 161.69 L 221.70 155.35 C 220.91 150.38 218.27 146.31 211.25 146.31 L 189.40 146.31 L 189.40 170.72 L 217.94 170.72 C 223.25 170.72 223.68 166.66 222.88 161.69 Z" fill="#aadbf7" fill-rule="nonzero" group-id="6,38" node-id="868" stroke="none" target-height="24.418" target-width="75.923004" target-x="147.756" target-y="146.309"/><path d="M 182.89 172.23 L 153.19 172.23 C 150.87 172.23 149.14 171.54 148.06 170.18 C 146.24 167.90 146.76 164.32 147.42 161.46 L 148.71 154.96 C 150.23 148.31 154.77 144.81 161.86 144.81 L 182.89 144.81 C 183.72 144.81 184.39 145.48 184.39 146.31 L 184.39 170.73 C 184.39 171.56 183.72 172.23 182.89 172.23 Z M 161.87 147.81 C 156.18 147.81 152.84 150.35 151.64 155.58 L 150.35 162.08 C 149.61 165.31 149.63 167.34 150.41 168.31 C 150.89 168.92 151.83 169.23 153.19 169.23 L 181.39 169.23 L 181.39 147.81 L 161.87 147.81 Z M 217.94 172.22 L 189.40 172.22 C 188.57 172.22 187.90 171.55 187.90 170.72 L 187.90 146.31 C 187.90 145.48 188.57 144.81 189.40 144.81 L 211.25 144.81 C 217.98 144.81 222.11 148.37 223.18 155.12 L 224.36 161.41 C 224.83 164.32 225.10 167.91 223.16 170.19 C 222.00 171.54 220.25 172.22 217.94 172.22 Z M 190.90 169.22 L 217.94 169.22 C 219.35 169.22 220.31 168.90 220.87 168.24 C 221.75 167.22 221.92 165.15 221.40 161.92 L 220.22 155.63 C 219.37 150.28 216.52 147.81 211.25 147.81 L 190.89 147.81 L 190.89 169.22 Z" fill="#6e6e96" fill-rule="nonzero" group-id="6,38" node-id="870" stroke="none" target-height="27.418" target-width="78.858" target-x="146.244" target-y="144.809"/></g><path d="M 139.91 178.34 L 145.57 155.70 C 146.95 149.44 153.42 144.32 159.96 144.32 L 212.39 144.32 C 218.92 144.32 225.06 149.50 226.03 155.83 L 229.93 178.21 C 229.95 178.29 229.95 178.39 229.97 178.48 C 230.10 177.44 230.10 176.37 229.93 175.30 L 226.03 152.93 C 225.06 146.60 218.92 141.42 212.39 141.42 L 159.96 141.42 C 153.43 141.42 146.95 146.53 145.57 152.79 L 139.91 175.43 C 139.63 176.73 139.59 178.04 139.75 179.28 C 139.79 178.97 139.85 178.65 139.91 178.34 Z" fill="#fff1b0" fill-rule="nonzero" group-id="6" node-id="873" stroke="none" target-height="37.865997" target-width="90.515" target-x="139.586" target-y="141.418"/><path d="M 118.24 221.33 C 118.24 221.33 111.79 221.32 109.06 221.30 C 106.34 221.28 104.13 218.81 104.15 215.82 L 104.24 195.86 L 104.29 192.73 C 104.29 186.91 109.07 183.23 115.16 181.85 L 137.06 177.28 L 232.83 177.28 C 235.65 178.28 244.75 178.47 244.75 189.85 L 244.91 216.67 C 244.94 219.66 242.51 222.10 239.51 222.07 L 234.01 222.03" fill="#ffe35f" fill-rule="nonzero" group-id="6,39" node-id="877" stroke="none" target-height="44.817993" target-width="140.80801" target-x="104.128" target-y="177.279"/><path d="M 239.56 223.57 C 239.54 223.57 239.52 223.57 239.50 223.57 L 234.00 223.54 L 234.03 220.54 L 239.52 220.57 C 239.53 220.57 239.54 220.57 239.55 220.57 C 240.59 220.57 241.55 220.18 242.28 219.44 C 243.02 218.71 243.42 217.72 243.41 216.68 L 243.25 189.86 C 243.25 181.33 237.74 180.03 234.09 179.17 C 233.52 179.03 233.02 178.92 232.59 178.78 L 137.21 178.78 L 115.46 183.32 C 112.57 183.97 105.79 186.22 105.79 192.73 L 105.74 195.88 L 105.65 215.82 C 105.63 218.00 107.17 219.78 109.08 219.80 C 111.80 219.82 118.24 219.83 118.24 219.83 L 118.24 222.83 C 118.24 222.83 111.78 222.82 109.05 222.80 C 105.49 222.77 102.62 219.63 102.65 215.81 L 102.79 192.71 C 102.79 186.71 107.29 182.10 114.82 180.39 L 137.06 175.78 L 233.09 175.78 L 233.33 175.87 C 233.67 175.99 234.18 176.11 234.78 176.25 C 238.50 177.13 246.25 178.95 246.25 189.85 L 246.41 216.66 C 246.43 218.51 245.71 220.25 244.40 221.56 C 243.11 222.86 241.39 223.57 239.56 223.57 Z" fill="#6e6e96" fill-rule="nonzero" group-id="6,39" node-id="879" stroke="none" target-height="47.79599" target-width="143.805" target-x="102.622" target-y="175.779"/><path d="M 243.69 191.00 C 243.69 178.03 234.70 179.49 231.91 178.48 L 137.30 178.49 L 115.66 183.04 C 109.65 184.41 104.93 186.43 104.93 193.87 L 104.88 196.99 L 104.79 216.85 C 104.77 219.83 106.95 222.29 109.64 222.31 C 112.34 222.33 118.71 222.34 118.71 222.34 L 233.08 223.05 L 238.51 223.09 C 241.47 223.11 243.87 220.69 243.85 217.71 L 243.69 191.00 Z M 230.05 214.09 L 225.09 214.06 L 120.76 213.49 C 120.76 213.49 114.95 213.48 112.49 213.47 C 110.04 213.45 108.05 211.49 108.06 209.11 L 108.15 196.25 L 108.19 191.37 C 108.19 186.74 112.49 183.82 117.98 182.72 L 137.72 179.09 L 224.03 179.09 C 226.57 179.89 234.76 180.03 234.76 189.08 L 234.91 209.79 C 234.94 212.17 232.75 214.10 230.05 214.09 Z" fill="#edca4c" fill-rule="nonzero" group-id="6,40" node-id="884" stroke="none" target-height="45.084" target-width="139.104" target-x="104.769" target-y="178.025"/><path d="M 111.93 202.77 L 111.97 196.76 C 111.97 191.07 116.65 190.49 122.60 189.14 L 142.00 185.09 L 237.67 184.67 C 238.64 185.01 240.38 185.26 242.22 185.93 C 240.14 179.27 233.50 179.01 231.19 178.19 L 137.53 178.19 L 116.12 182.66 C 110.16 184.00 105.49 187.60 105.49 193.30 L 105.45 196.29 L 105.35 215.80 C 105.33 218.73 107.50 221.15 110.16 221.16 C 110.63 221.16 111.21 221.17 111.84 221.17 L 111.93 202.77 Z" fill="#ffffff" fill-opacity="0.44" fill-rule="nonzero" group-id="6,41" node-id="889" stroke="none" target-height="42.986008" target-width="136.883" target-x="105.333" target-y="178.187"/><path d="M 149.89 223.80 L 195.91 223.80 L 195.91 223.80 C 197.07 223.80 198.02 222.86 198.02 221.69 C 198.02 220.53 197.07 219.58 195.91 219.58 L 195.91 219.58 L 149.89 219.58 L 149.89 219.58 C 148.73 219.58 147.78 220.53 147.78 221.69 C 147.78 222.85 148.73 223.80 149.89 223.80 L 149.89 223.80 Z" fill="#6e6e96" fill-rule="nonzero" group-id="6,42" node-id="894" stroke="none" target-height="4.218994" target-width="50.23799" target-x="147.781" target-y="219.582"/><path d="M 111.28 213.62 C 111.28 213.62 114.25 197.39 133.24 197.39 C 152.23 197.39 156.75 213.85 156.75 213.85 L 111.28 213.62 Z" fill="#edca4c" fill-rule="nonzero" group-id="6,43" node-id="899" stroke="none" target-height="16.464005" target-width="45.475006" target-x="111.278" target-y="197.388"/><path d="M 152.28 205.82 L 195.04 205.82 L 195.04 211.92 L 152.28 211.92 Z" fill="#edca4c" fill-rule="nonzero" group-id="6" node-id="902" stroke="none" target-height="6.105011" target-width="42.768997" target-x="152.276" target-y="205.816"/><path d="M 190.25 214.23 C 190.25 214.23 194.42 196.79 213.41 196.79 C 236.32 196.79 235.72 214.46 235.72 214.46 L 190.25 214.23 Z" fill="#edca4c" fill-rule="nonzero" group-id="6,44" node-id="906" stroke="none" target-height="17.668" target-width="46.075012" target-x="190.245" target-y="196.789"/><path d="M 248.65 221.49 C 248.65 223.14 247.30 224.50 245.64 224.50 L 104.17 224.50 C 102.52 224.50 101.16 223.15 101.16 221.49 L 101.16 215.55 C 101.16 213.89 102.52 212.54 104.17 212.54 L 245.64 212.54 C 247.29 212.54 248.65 213.89 248.65 215.55 L 248.65 221.49 L 248.65 221.49 Z" fill="#f0f0ff" fill-rule="nonzero" group-id="6,45" node-id="911" stroke="none" target-height="11.9640045" target-width="147.49399" target-x="101.158" target-y="212.538"/><path d="M 245.64 226.00 L 104.17 226.00 C 101.68 226.00 99.66 223.98 99.66 221.49 L 99.66 215.55 C 99.66 213.06 101.68 211.04 104.17 211.04 L 245.64 211.04 C 248.13 211.04 250.15 213.06 250.15 215.55 L 250.15 221.49 C 250.15 223.98 248.12 226.00 245.64 226.00 Z M 104.17 214.04 C 103.34 214.04 102.66 214.72 102.66 215.56 L 102.66 221.49 C 102.66 222.32 103.34 223.00 104.17 223.00 L 245.64 223.00 C 246.47 223.00 247.15 222.32 247.15 221.49 L 247.15 215.55 C 247.15 214.72 246.47 214.04 245.64 214.04 L 104.17 214.04 Z" fill="#6e6e96" fill-rule="nonzero" group-id="6,45" node-id="913" stroke="none" target-height="14.9640045" target-width="150.49399" target-x="99.658" target-y="211.038"/><path d="M 101.16 219.48 L 247.77 219.48 L 247.77 223.71 L 101.16 223.71 Z" fill="#6e6e96" fill-opacity="0.15" fill-rule="nonzero" group-id="6,46" node-id="918" stroke="none" target-height="4.225006" target-width="146.612" target-x="101.158" target-y="219.48"/><path d="M 102.28 200.77 L 108.42 200.77 L 108.42 212.53 L 102.28 212.53 Z" fill="#ffff00" fill-rule="nonzero" group-id="6,47" node-id="923" stroke="none" target-height="11.755997" target-width="6.140999" target-x="102.279" target-y="200.771"/><path d="M 108.42 214.03 L 102.28 214.03 C 101.45 214.03 100.78 213.35 100.78 212.53 L 100.78 200.77 C 100.78 199.94 101.45 199.27 102.28 199.27 L 108.42 199.27 C 109.25 199.27 109.92 199.94 109.92 200.77 L 109.92 212.53 C 109.92 213.35 109.25 214.03 108.42 214.03 Z M 103.78 211.03 L 106.92 211.03 L 106.92 202.27 L 103.78 202.27 L 103.78 211.03 Z" fill="#6e6e96" fill-rule="nonzero" group-id="6,47" node-id="925" stroke="none" target-height="14.755997" target-width="9.140999" target-x="100.778" target-y="199.271"/><path d="M 143.49 184.93 L 179.98 184.93 L 179.98 182.36 L 143.49 182.36 L 143.49 184.93 Z M 187.36 182.35 L 187.36 184.93 L 224.37 184.93 L 224.37 182.35 L 187.36 182.35 Z" fill="#ffffff" fill-opacity="0.6" fill-rule="nonzero" group-id="6,48" node-id="930" stroke="none" target-height="2.57901" target-width="80.880005" target-x="143.487" target-y="182.355"/><path d="M 240.59 199.56 L 247.52 199.56 L 247.52 212.53 L 240.59 212.53 Z" fill="#ff5f5f" fill-rule="nonzero" group-id="6,49" node-id="935" stroke="none" target-height="12.960999" target-width="6.9309998" target-x="240.589" target-y="199.564"/><path d="M 247.52 214.03 L 240.59 214.03 C 239.76 214.03 239.09 213.35 239.09 212.53 L 239.09 199.56 C 239.09 198.74 239.76 198.06 240.59 198.06 L 247.52 198.06 C 248.35 198.06 249.02 198.74 249.02 199.56 L 249.02 212.53 C 249.02 213.35 248.35 214.03 247.52 214.03 Z M 242.09 211.03 L 246.02 211.03 L 246.02 201.06 L 242.09 201.06 L 242.09 211.03 Z" fill="#6e6e96" fill-rule="nonzero" group-id="6,49" node-id="937" stroke="none" target-height="15.960999" target-width="9.931" target-x="239.089" target-y="198.064"/><path d="M 240.59 199.56 L 247.52 199.56 L 247.52 206.50 L 240.59 206.50 Z" fill="#ffff00" fill-rule="nonzero" group-id="6,50" node-id="942" stroke="none" target-height="6.9329987" target-width="6.9309998" target-x="240.589" target-y="199.564"/><path d="M 247.52 208.00 L 240.59 208.00 C 239.76 208.00 239.09 207.32 239.09 206.50 L 239.09 199.56 C 239.09 198.74 239.76 198.06 240.59 198.06 L 247.52 198.06 C 248.35 198.06 249.02 198.74 249.02 199.56 L 249.02 206.50 C 249.02 207.32 248.35 208.00 247.52 208.00 Z M 242.09 205.00 L 246.02 205.00 L 246.02 201.06 L 242.09 201.06 L 242.09 205.00 Z" fill="#6e6e96" fill-rule="nonzero" group-id="6,50" node-id="944" stroke="none" target-height="9.932999" target-width="9.931" target-x="239.089" target-y="198.064"/><path d="M 102.28 200.77 L 108.22 200.77 L 108.22 206.65 L 102.28 206.65 Z" fill="#ffffff" fill-rule="nonzero" group-id="6,51" node-id="949" stroke="none" target-height="5.878998" target-width="5.9380035" target-x="102.279" target-y="200.771"/><path d="M 108.22 208.15 L 102.28 208.15 C 101.45 208.15 100.78 207.48 100.78 206.65 L 100.78 200.77 C 100.78 199.94 101.45 199.27 102.28 199.27 L 108.22 199.27 C 109.05 199.27 109.72 199.94 109.72 200.77 L 109.72 206.65 C 109.72 207.48 109.05 208.15 108.22 208.15 Z M 103.78 205.15 L 106.72 205.15 L 106.72 202.27 L 103.78 202.27 L 103.78 205.15 Z" fill="#6e6e96" fill-rule="nonzero" group-id="6,51" node-id="951" stroke="none" target-height="8.878998" target-width="8.938004" target-x="100.778" target-y="199.271"/><path d="M 160.66 224.31 C 160.57 208.07 150.19 195.57 133.82 195.66 C 117.44 195.75 107.83 208.35 107.92 224.60 L 160.66 224.31 Z" fill="#9c9ca8" fill-rule="nonzero" group-id="6,52,116" node-id="958" stroke="none" target-height="29.03299" target-width="52.839996" target-x="107.825" target-y="195.572"/><path d="M 106.43 226.11 L 106.42 224.61 C 106.37 216.18 108.90 208.54 113.55 203.10 C 118.51 197.30 125.52 194.21 133.81 194.16 L 134.00 194.16 C 150.48 194.16 162.06 206.56 162.16 224.30 L 162.17 225.80 L 106.43 226.11 Z M 134.00 197.16 L 133.83 197.16 C 126.43 197.21 120.21 199.93 115.83 205.05 C 111.92 209.62 109.68 215.99 109.44 223.10 L 159.12 222.82 C 158.42 207.63 148.26 197.16 134.00 197.16 Z" fill="#6e6e96" fill-rule="nonzero" group-id="6,52,116" node-id="960" stroke="none" target-height="31.951996" target-width="55.801994" target-x="106.37" target-y="194.162"/><path d="M 150.18 221.52 C 150.18 230.36 143.01 237.53 134.17 237.53 C 125.33 237.53 118.16 230.36 118.16 221.52 C 118.16 212.68 125.33 205.51 134.17 205.51 C 143.01 205.51 150.18 212.68 150.18 221.52 Z" fill="#f0f0ff" fill-rule="nonzero" group-id="6,52,117" node-id="965" stroke="none" target-height="32.018005" target-width="32.01799" target-x="118.162" target-y="205.508"/><path d="M 134.17 209.13 C 141.00 209.13 146.56 214.69 146.56 221.52 C 146.56 224.82 145.27 227.94 142.93 230.28 C 140.59 232.62 137.48 233.91 134.17 233.91 C 127.34 233.91 121.78 228.35 121.78 221.52 C 121.78 214.68 127.34 209.13 134.17 209.13 Z M 114.55 221.52 C 114.55 232.34 123.35 241.14 134.17 241.14 C 144.99 241.14 153.80 232.34 153.80 221.52 C 153.80 210.70 144.99 201.89 134.17 201.89 C 123.35 201.89 114.55 210.69 114.55 221.52 Z" fill="#ccccde" fill-rule="nonzero" group-id="6,52,118" node-id="970" stroke="none" target-height="39.252" target-width="39.251" target-x="114.546" target-y="201.891"/><path d="M 134.17 242.64 C 122.52 242.64 113.05 233.16 113.05 221.52 C 113.05 209.87 122.52 200.39 134.17 200.39 C 145.82 200.39 155.30 209.87 155.30 221.52 C 155.30 233.16 145.82 242.64 134.17 242.64 Z M 134.17 203.39 C 124.18 203.39 116.05 211.52 116.05 221.52 C 116.05 231.51 124.18 239.64 134.17 239.64 C 144.17 239.64 152.30 231.51 152.30 221.52 C 152.30 211.52 144.17 203.39 134.17 203.39 Z M 134.17 235.41 C 126.51 235.41 120.28 229.18 120.28 221.51 C 120.28 213.86 126.51 207.62 134.17 207.62 C 141.83 207.62 148.06 213.85 148.06 221.51 C 148.06 225.22 146.62 228.71 144.00 231.34 C 141.37 233.96 137.88 235.41 134.17 235.41 Z M 134.17 210.63 C 128.17 210.63 123.28 215.51 123.28 221.52 C 123.28 227.52 128.16 232.41 134.17 232.41 C 137.08 232.41 139.81 231.28 141.87 229.22 C 143.93 227.16 145.06 224.43 145.06 221.52 C 145.06 215.51 140.18 210.63 134.17 210.63 Z" fill="#6e6e96" fill-rule="nonzero" group-id="6,52,118" node-id="972" stroke="none" target-height="42.252" target-width="42.251" target-x="113.046" target-y="200.391"/><path d="M 134.40 202.81 C 124.30 202.81 116.09 211.03 116.09 221.13 C 116.09 221.66 116.11 222.19 116.16 222.71 C 116.96 213.35 123.72 204.85 133.29 204.85 C 145.18 204.85 151.85 213.34 152.65 222.71 C 152.70 222.19 152.72 221.66 152.72 221.13 C 152.72 211.03 144.51 202.81 134.40 202.81 Z" fill="#e6e6fa" fill-rule="nonzero" group-id="6,52" node-id="975" stroke="none" target-height="19.901001" target-width="36.639008" target-x="116.086" target-y="202.812"/><path d="M 133.51 212.98 C 139.72 212.98 144.94 217.25 146.39 223.00 C 146.65 221.97 146.79 220.88 146.79 219.75 C 146.79 212.42 140.84 206.48 133.51 206.48 C 126.18 206.48 120.23 212.42 120.23 219.75 C 120.23 220.88 120.37 221.97 120.64 223.00 C 122.08 217.24 127.30 212.98 133.51 212.98 Z" fill="#6e6e96" fill-opacity="0.15" fill-rule="nonzero" group-id="6,52,119" node-id="979" stroke="none" target-height="16.526001" target-width="26.557" target-x="120.232" target-y="206.479"/><path d="M 138.19 221.74 C 138.19 224.14 136.24 226.09 133.84 226.09 C 131.44 226.09 129.49 224.14 129.49 221.74 C 129.49 219.34 131.44 217.39 133.84 217.39 C 136.24 217.39 138.19 219.34 138.19 221.74 Z" fill="#ccccde" fill-rule="nonzero" group-id="6,52,120" node-id="984" stroke="none" target-height="8.701996" target-width="8.701996" target-x="129.491" target-y="217.39"/><path d="M 133.84 227.59 C 130.62 227.59 127.99 224.97 127.99 221.74 C 127.99 218.51 130.62 215.89 133.84 215.89 C 137.07 215.89 139.69 218.51 139.69 221.74 C 139.69 224.97 137.07 227.59 133.84 227.59 Z M 133.84 218.89 C 132.27 218.89 130.99 220.17 130.99 221.74 C 130.99 223.31 132.27 224.59 133.84 224.59 C 135.41 224.59 136.69 223.31 136.69 221.74 C 136.69 220.17 135.41 218.89 133.84 218.89 Z" fill="#6e6e96" fill-rule="nonzero" group-id="6,52,120" node-id="986" stroke="none" target-height="11.701996" target-width="11.701996" target-x="127.991" target-y="215.89"/><path d="M 134.14 210.15 C 140.29 210.15 145.36 214.61 146.05 220.34 C 146.10 219.90 146.13 219.46 146.13 219.02 C 146.13 212.67 140.75 207.50 134.14 207.50 C 127.53 207.50 122.14 212.67 122.14 219.02 C 122.14 219.47 122.18 219.91 122.23 220.34 C 122.92 214.61 127.99 210.15 134.14 210.15 Z M 153.08 220.34 C 152.37 229.78 144.15 237.26 134.14 237.26 C 124.13 237.26 115.91 229.78 115.20 220.34 C 115.16 220.78 115.14 221.22 115.14 221.67 C 115.14 231.72 123.66 239.91 134.14 239.91 C 144.62 239.91 153.14 231.72 153.14 221.67 C 153.14 221.22 153.12 220.78 153.08 220.34 Z" fill="#6e6e96" fill-opacity="0.2" fill-rule="nonzero" group-id="6,52,121" node-id="991" stroke="none" target-height="32.404007" target-width="37.99901" target-x="115.14" target-y="207.502"/><path d="M 110.89 224.59 C 110.89 224.59 110.99 199.17 136.31 199.17 C 161.63 199.17 157.02 224.80 157.02 224.80 L 160.67 224.31 C 160.67 224.31 160.13 195.67 133.82 195.67 C 107.51 195.67 107.92 224.61 107.92 224.61 L 110.89 224.59 Z" fill="#6e6e96" fill-opacity="0.2" fill-rule="nonzero" group-id="6,52,122" node-id="996" stroke="none" target-height="29.130005" target-width="54.12401" target-x="107.506" target-y="195.666"/><path d="M 242.21 224.31 C 242.12 208.07 231.73 195.57 215.36 195.66 C 198.99 195.75 189.37 208.35 189.46 224.60 L 242.21 224.31 Z" fill="#9c9ca8" fill-rule="nonzero" group-id="6,53" node-id="1002" stroke="none" target-height="29.03299" target-width="52.837997" target-x="189.37" target-y="195.572"/><path d="M 187.97 226.11 L 187.96 224.61 C 187.86 206.49 198.87 194.26 215.35 194.16 L 215.54 194.16 C 232.02 194.16 243.61 206.56 243.71 224.30 L 243.72 225.80 L 187.97 226.11 Z M 215.54 197.16 L 215.37 197.16 C 201.13 197.24 191.48 207.60 190.98 223.10 L 240.67 222.82 C 239.96 207.63 229.80 197.16 215.54 197.16 Z" fill="#6e6e96" fill-rule="nonzero" group-id="6,53" node-id="1004" stroke="none" target-height="31.951004" target-width="55.856995" target-x="187.86" target-y="194.163"/><path d="M 231.72 221.52 C 231.72 230.36 224.55 237.53 215.71 237.53 C 206.87 237.53 199.70 230.36 199.70 221.52 C 199.70 212.68 206.87 205.51 215.71 205.51 C 224.55 205.51 231.72 212.68 231.72 221.52 Z" fill="#f0f0ff" fill-rule="nonzero" group-id="6,54" node-id="1009" stroke="none" target-height="32.018005" target-width="32.01799" target-x="199.703" target-y="205.508"/><path d="M 215.71 209.13 C 222.54 209.13 228.10 214.69 228.10 221.52 C 228.10 224.82 226.81 227.94 224.48 230.28 C 222.13 232.62 219.02 233.91 215.71 233.91 C 208.88 233.91 203.32 228.35 203.32 221.52 C 203.32 214.69 208.88 209.13 215.71 209.13 Z M 196.09 221.52 C 196.09 232.34 204.89 241.14 215.71 241.14 C 226.54 241.14 235.34 232.34 235.34 221.52 C 235.34 210.70 226.53 201.89 215.71 201.89 C 204.89 201.89 196.09 210.69 196.09 221.52 Z" fill="#ccccde" fill-rule="nonzero" group-id="6,55" node-id="1014" stroke="none" target-height="39.252" target-width="39.25099" target-x="196.087" target-y="201.891"/><path d="M 215.71 242.64 C 204.06 242.64 194.59 233.16 194.59 221.52 C 194.59 209.87 204.06 200.39 215.71 200.39 C 227.36 200.39 236.84 209.87 236.84 221.52 C 236.84 233.16 227.36 242.64 215.71 242.64 Z M 215.71 203.39 C 205.72 203.39 197.59 211.52 197.59 221.52 C 197.59 231.51 205.72 239.64 215.71 239.64 C 225.71 239.64 233.84 231.51 233.84 221.52 C 233.84 211.52 225.71 203.39 215.71 203.39 Z M 215.71 235.41 C 208.05 235.41 201.82 229.18 201.82 221.51 C 201.82 213.86 208.05 207.62 215.71 207.62 C 223.37 207.62 229.60 213.85 229.60 221.51 C 229.60 225.22 228.16 228.71 225.54 231.34 C 222.91 233.96 219.42 235.41 215.71 235.41 Z M 215.71 210.63 C 209.71 210.63 204.82 215.51 204.82 221.52 C 204.82 227.52 209.71 232.41 215.71 232.41 C 218.62 232.41 221.36 231.28 223.42 229.22 C 225.47 227.16 226.60 224.43 226.60 221.52 C 226.60 215.51 221.72 210.63 215.71 210.63 Z" fill="#6e6e96" fill-rule="nonzero" group-id="6,55" node-id="1016" stroke="none" target-height="42.252" target-width="42.25099" target-x="194.587" target-y="200.391"/><path d="M 215.95 202.81 C 205.84 202.81 197.62 211.03 197.62 221.13 C 197.62 221.66 197.65 222.19 197.70 222.71 C 198.50 213.35 205.26 204.85 214.83 204.85 C 226.72 204.85 233.39 213.34 234.20 222.71 C 234.24 222.19 234.27 221.66 234.27 221.13 C 234.27 211.03 226.05 202.81 215.95 202.81 Z" fill="#e6e6fa" fill-rule="nonzero" group-id="6" node-id="1019" stroke="none" target-height="19.901001" target-width="36.642" target-x="197.625" target-y="202.812"/><path d="M 215.05 212.98 C 221.27 212.98 226.48 217.25 227.93 223.00 C 228.19 221.97 228.33 220.88 228.33 219.75 C 228.33 212.42 222.39 206.48 215.05 206.48 C 207.72 206.48 201.78 212.42 201.78 219.75 C 201.78 220.88 201.92 221.97 202.18 223.00 C 203.63 217.24 208.84 212.98 215.05 212.98 Z" fill="#6e6e96" fill-opacity="0.15" fill-rule="nonzero" group-id="6,56" node-id="1023" stroke="none" target-height="16.526001" target-width="26.555008" target-x="201.775" target-y="206.479"/><path d="M 219.73 221.74 C 219.73 224.14 217.78 226.09 215.38 226.09 C 212.98 226.09 211.03 224.14 211.03 221.74 C 211.03 219.34 212.98 217.39 215.38 217.39 C 217.78 217.39 219.73 219.34 219.73 221.74 Z" fill="#ccccde" fill-rule="nonzero" group-id="6,57" node-id="1028" stroke="none" target-height="8.701996" target-width="8.701996" target-x="211.031" target-y="217.39"/><path d="M 215.38 227.59 C 212.16 227.59 209.53 224.97 209.53 221.74 C 209.53 218.51 212.16 215.89 215.38 215.89 C 218.61 215.89 221.23 218.51 221.23 221.74 C 221.23 224.97 218.61 227.59 215.38 227.59 Z M 215.38 218.89 C 213.81 218.89 212.53 220.17 212.53 221.74 C 212.53 223.31 213.81 224.59 215.38 224.59 C 216.96 224.59 218.23 223.31 218.23 221.74 C 218.23 220.17 216.95 218.89 215.38 218.89 Z" fill="#6e6e96" fill-rule="nonzero" group-id="6,57" node-id="1030" stroke="none" target-height="11.701996" target-width="11.701996" target-x="209.531" target-y="215.89"/><path d="M 215.68 210.15 C 221.83 210.15 226.90 214.61 227.59 220.34 C 227.64 219.90 227.68 219.46 227.68 219.02 C 227.68 212.67 222.29 207.50 215.68 207.50 C 209.07 207.50 203.69 212.67 203.69 219.02 C 203.69 219.47 203.72 219.91 203.77 220.34 C 204.46 214.61 209.53 210.15 215.68 210.15 Z M 234.62 220.34 C 233.92 229.78 225.69 237.26 215.68 237.26 C 205.67 237.26 197.45 229.78 196.74 220.34 C 196.71 220.78 196.68 221.22 196.68 221.67 C 196.68 231.72 205.21 239.91 215.68 239.91 C 226.16 239.91 234.68 231.72 234.68 221.67 C 234.68 221.22 234.66 220.78 234.62 220.34 Z" fill="#6e6e96" fill-opacity="0.2" fill-rule="nonzero" group-id="6,58" node-id="1035" stroke="none" target-height="32.404007" target-width="38" target-x="196.682" target-y="207.502"/><path d="M 192.43 224.59 C 192.43 224.59 192.53 199.17 217.85 199.17 C 243.17 199.17 238.56 224.80 238.56 224.80 L 242.21 224.31 C 242.21 224.31 241.68 195.67 215.36 195.67 C 189.05 195.67 189.46 224.61 189.46 224.61 L 192.43 224.59 Z" fill="#6e6e96" fill-opacity="0.2" fill-rule="nonzero" group-id="6,59" node-id="1040" stroke="none" target-height="29.130005" target-width="54.123993" target-x="189.048" target-y="195.666"/><path d="M 182.89 207.32 L 161.32 207.32 C 160.74 207.32 160.21 206.98 159.97 206.46 C 153.36 192.47 138.27 191.85 138.12 191.85 C 137.31 191.82 136.66 191.16 136.66 190.35 L 136.66 177.28 C 136.66 176.45 137.34 175.78 138.16 175.78 C 138.99 175.78 139.66 176.45 139.66 177.28 L 139.66 188.97 C 143.85 189.47 155.93 191.95 162.25 204.32 L 181.39 204.32 L 181.39 177.28 C 181.39 176.45 182.06 175.78 182.89 175.78 C 183.72 175.78 184.39 176.45 184.39 177.28 L 184.39 205.82 C 184.39 206.65 183.72 207.32 182.89 207.32 Z" fill="#6e6e96" fill-rule="nonzero" group-id="6" node-id="1043" stroke="none" target-height="31.533997" target-width="47.727005" target-x="136.663" target-y="175.782"/><path d="M 188.08 207.32 L 182.89 207.32 C 182.06 207.32 181.39 206.64 181.39 205.82 C 181.39 204.99 182.06 204.32 182.89 204.32 L 187.17 204.32 C 189.04 201.00 196.72 189.46 212.99 189.46 C 223.00 189.46 227.84 189.63 230.25 189.86 L 230.25 178.18 C 230.25 177.35 230.92 176.68 231.75 176.68 C 232.57 176.68 233.25 177.35 233.25 178.18 L 233.25 191.58 C 233.25 192.19 232.88 192.73 232.32 192.97 C 231.95 193.12 231.55 193.11 231.20 192.98 C 230.78 192.89 227.99 192.46 212.99 192.46 C 196.00 192.46 189.50 206.30 189.44 206.44 C 189.20 206.97 188.66 207.32 188.08 207.32 Z" fill="#6e6e96" fill-rule="nonzero" group-id="6" node-id="1045" stroke="none" target-height="30.634995" target-width="51.852997" target-x="181.392" target-y="176.681"/><path d="M 177.93 186.43 L 171.16 186.43 C 170.34 186.43 169.66 185.76 169.66 184.93 C 169.66 184.11 170.34 183.43 171.16 183.43 L 177.93 183.43 C 178.75 183.43 179.43 184.11 179.43 184.93 C 179.43 185.76 178.75 186.43 177.93 186.43 Z" fill="#6e6e96" fill-rule="nonzero" group-id="6" node-id="1047" stroke="none" target-height="3" target-width="9.764008" target-x="169.663" target-y="183.434"/><path d="M 227.13 186.21 L 220.06 186.21 C 219.23 186.21 218.56 185.54 218.56 184.71 C 218.56 183.89 219.23 183.21 220.06 183.21 L 227.13 183.21 C 227.96 183.21 228.63 183.89 228.63 184.71 C 228.63 185.54 227.96 186.21 227.13 186.21 Z" fill="#6e6e96" fill-rule="nonzero" group-id="6" node-id="1049" stroke="none" target-height="3" target-width="10.072006" target-x="218.56" target-y="183.214"/><path d="M 222.88 161.69 L 221.70 155.35 C 220.91 150.38 218.27 146.31 211.25 146.31 L 189.40 146.31 L 189.40 150.62 L 211.25 150.62 C 218.27 150.62 220.90 154.68 221.70 159.66 L 222.88 165.99 C 222.94 166.31 222.99 166.63 223.03 166.95 C 223.31 165.46 223.20 163.65 222.88 161.69 Z M 150.18 155.25 L 148.88 161.79 C 148.35 164.10 148.11 166.21 148.54 167.80 C 148.63 167.25 148.75 166.68 148.88 166.10 L 150.18 159.55 C 151.68 153.01 156.19 150.61 161.87 150.61 L 182.89 150.61 L 182.89 146.31 L 161.87 146.31 C 156.19 146.31 151.68 148.70 150.18 155.25 Z" fill="#6e6e96" fill-opacity="0.15" fill-rule="nonzero" group-id="6,60" node-id="1053" stroke="none" target-height="21.494003" target-width="75.20401" target-x="148.111" target-y="146.308"/><path d="M 155.79 164.01 L 164.29 155.50 L 170.34 155.50 L 161.84 164.01" fill="#ffffff" fill-opacity="0.47" fill-rule="nonzero" group-id="6,61" node-id="1058" stroke="none" target-height="8.506989" target-width="14.556" target-x="155.787" target-y="155.501"/><path d="M 193.30 164.01 L 201.81 155.50 L 207.86 155.50 L 199.35 164.01" fill="#ffffff" fill-opacity="0.47" fill-rule="nonzero" group-id="6,62" node-id="1063" stroke="none" target-height="8.506989" target-width="14.559006" target-x="193.303" target-y="155.501"/><path d="M 165.42 164.01 L 173.93 155.50 L 176.29 155.50 L 167.78 164.01" fill="#ffffff" fill-opacity="0.23" fill-rule="nonzero" group-id="6,63" node-id="1068" stroke="none" target-height="8.506989" target-width="10.866989" target-x="165.421" target-y="155.501"/><path d="M 204.17 164.01 L 212.68 155.50 L 215.03 155.50 L 206.53 164.01" fill="#ffffff" fill-opacity="0.23" fill-rule="nonzero" group-id="6,64" node-id="1073" stroke="none" target-height="8.506989" target-width="10.86499" target-x="204.169" target-y="155.501"/><path d="M 118.06 190.22 L 136.18 182.39 L 136.93 185.89 Z" fill="#ffffff" fill-opacity="0.6" fill-rule="nonzero" group-id="6,65" node-id="1078" stroke="none" target-height="7.8350067" target-width="18.868996" target-x="118.064" target-y="182.388"/></g></svg>