<svg t="1702176298411" class="icon" viewBox="0 0 1034 1024" version="1.1" xmlns="http://www.w3.org/2000/svg" p-id="21655" width="128" height="128"><path d="M955.281573 305.41523h-146.026656v128.465281a59.746854 59.746854 0 0 1-59.460528 59.460527H284.513375a59.746854 59.746854 0 0 1-59.460528-59.460527V305.41523H78.930748A79.217075 79.217075 0 0 0 0 384.632305V944.878367a79.217075 79.217075 0 0 0 78.930748 78.930748h876.255383a79.217075 79.217075 0 0 0 79.026191-78.930748V384.632305a79.217075 79.217075 0 0 0-78.930749-79.217075zM631.923199 788.639389a20.233759 20.233759 0 0 1 0 40.467518h-94.678721v47.721129a20.138317 20.138317 0 0 1-40.372076 0v-48.198341h-94.583279a20.138317 20.138317 0 0 1 0-40.372075h94.678721v-47.72113h-94.678721a20.233759 20.233759 0 0 1 0-40.467518H486.755522l-87.711436-82.652997a20.138317 20.138317 0 0 1 27.487371-29.300773l90.479262 84.943611 90.479261-84.561842a20.138317 20.138317 0 0 1 27.487371 29.491658l-87.615994 82.557554h84.561842a20.233759 20.233759 0 0 1 0 40.467518h-94.678721v47.72113z" p-id="21656" fill="#ffffff"></path><path d="M325.171777 399.903066m30.255197 0l323.262932 0q30.255196 0 30.255196 30.255197l0 4.008575q0 30.255196-30.255196 30.255196l-323.262932 0q-30.255196 0-30.255197-30.255196l0-4.008575q0-30.255196 30.255197-30.255197Z" p-id="21657" fill="#ffffff"></path><path d="M483.987697 0m31.018734 0l4.19946 0q31.018734 0 31.018734 31.018734l0 268.288191q0 31.018734-31.018734 31.018734l-4.19946 0q-31.018734 0-31.018734-31.018734l0-268.288191q0-31.018734 31.018734-31.018734Z" p-id="21658" fill="#ffffff"></path><path d="M377.850117 235.1848m16.332064-16.332064l2.159612-2.159612q16.332064-16.332064 32.664128 0l106.630833 106.630833q16.332064 16.332064 0 32.664128l-2.159612 2.159612q-16.332064 16.332064-32.664128 0l-106.630833-106.630833q-16.332064-16.332064 0-32.664128Z" p-id="21659" fill="#ffffff"></path><path d="M517.160089 374.470217m-16.332064-16.332064l-2.159612-2.159612q-16.332064-16.332064 0-32.664129l106.630833-106.630832q16.332064-16.332064 32.664128 0l2.159612 2.159612q16.332064 16.332064 0 32.664128l-106.630832 106.630833q-16.332064 16.332064-32.664129 0Z" p-id="21660" fill="#ffffff"></path></svg>